<svg width="28" height="28" viewBox="0 0 28 28" fill="none" xmlns="http://www.w3.org/2000/svg">
<path fill-rule="evenodd" clip-rule="evenodd" d="M13.9679 23.7629C10.1891 23.7629 6.96094 23.1913 6.96094 20.9023C6.96094 18.6133 10.1681 16.6206 13.9679 16.6206C17.7468 16.6206 20.9749 18.5946 20.9749 20.8824C20.9749 23.1703 17.7678 23.7629 13.9679 23.7629Z" stroke="white" stroke-width="1.5" stroke-linecap="round" stroke-linejoin="round"/>
<path fill-rule="evenodd" clip-rule="evenodd" d="M13.9682 13.3569C16.4486 13.3569 18.4599 11.3468 18.4599 8.86642C18.4599 6.38609 16.4486 4.37476 13.9682 4.37476C11.4879 4.37476 9.47658 6.38609 9.47658 8.86642C9.46958 11.3374 11.4646 13.3488 13.9367 13.3569H13.9682Z" stroke="white" stroke-width="1.5" stroke-linecap="round" stroke-linejoin="round"/>
<path d="M21.4222 12.1235C22.8653 11.7374 23.9294 10.4214 23.9294 8.85454C23.9294 7.22004 22.7708 5.85504 21.2285 5.54004" stroke="white" stroke-width="1.5" stroke-linecap="round" stroke-linejoin="round"/>
<path d="M22.0996 15.802C24.1459 15.802 25.8936 17.1892 25.8936 18.4282C25.8936 19.1573 25.2904 19.9518 24.3758 20.1665" stroke="white" stroke-width="1.5" stroke-linecap="round" stroke-linejoin="round"/>
<path d="M6.51419 12.1235C5.06986 11.7374 4.00586 10.4214 4.00586 8.85454C4.00586 7.22004 5.16553 5.85504 6.70669 5.54004" stroke="white" stroke-width="1.5" stroke-linecap="round" stroke-linejoin="round"/>
<path d="M5.83502 15.802C3.78868 15.802 2.04102 17.1892 2.04102 18.4282C2.04102 19.1573 2.64418 19.9518 3.56002 20.1665" stroke="white" stroke-width="1.5" stroke-linecap="round" stroke-linejoin="round"/>
</svg>
