<svg width="32" height="34" viewBox="0 0 32 34" fill="none" xmlns="http://www.w3.org/2000/svg">
<g filter="url(#filter0_d_1196_12246)">
<path fill-rule="evenodd" clip-rule="evenodd" d="M13.084 14.646C16.2977 14.646 18.8737 12.0366 18.8737 8.7814C18.8737 5.52615 16.2977 2.91675 13.084 2.91675C9.87032 2.91675 7.29425 5.52615 7.29425 8.7814C7.29425 12.0366 9.87032 14.646 13.084 14.646ZM13.084 17.5178C8.36391 17.5178 4.33398 18.2725 4.33398 21.2876C4.33398 24.3015 8.33939 25.0834 13.084 25.0834C17.8029 25.0834 21.834 24.3287 21.834 21.3136C21.834 18.2985 17.8286 17.5178 13.084 17.5178ZM25.2149 11.1859H26.6185C27.1963 11.1859 27.6673 11.6636 27.6673 12.2495C27.6673 12.8353 27.1963 13.313 26.6185 13.313H25.2149V14.6865C25.2149 15.2724 24.7451 15.7501 24.1661 15.7501C23.5884 15.7501 23.1173 15.2724 23.1173 14.6865V13.313H21.7161C21.1372 13.313 20.6673 12.8353 20.6673 12.2495C20.6673 11.6636 21.1372 11.1859 21.7161 11.1859H23.1173V9.81363C23.1173 9.22777 23.5884 8.75008 24.1661 8.75008C24.7451 8.75008 25.2149 9.22777 25.2149 9.81363V11.1859Z" fill="white"/>
</g>
<defs>
<filter id="filter0_d_1196_12246" x="-2" y="0" width="36" height="36" filterUnits="userSpaceOnUse" color-interpolation-filters="sRGB">
<feFlood flood-opacity="0" result="BackgroundImageFix"/>
<feColorMatrix in="SourceAlpha" type="matrix" values="0 0 0 0 0 0 0 0 0 0 0 0 0 0 0 0 0 0 127 0" result="hardAlpha"/>
<feOffset dy="4"/>
<feGaussianBlur stdDeviation="2"/>
<feComposite in2="hardAlpha" operator="out"/>
<feColorMatrix type="matrix" values="0 0 0 0 0 0 0 0 0 0 0 0 0 0 0 0 0 0 0.25 0"/>
<feBlend mode="normal" in2="BackgroundImageFix" result="effect1_dropShadow_1196_12246"/>
<feBlend mode="normal" in="SourceGraphic" in2="effect1_dropShadow_1196_12246" result="shape"/>
</filter>
</defs>
</svg>
