<svg width="20" height="20" viewBox="0 0 20 20" fill="none" xmlns="http://www.w3.org/2000/svg">
<path d="M15.0657 10.3501L9.91574 15.5084C9.24059 16.1084 8.3617 16.4278 7.45884 16.4012C6.55599 16.3747 5.69741 16.0041 5.05872 15.3655C4.42003 14.7268 4.0495 13.8682 4.02292 12.9653C3.99635 12.0625 4.31573 11.1836 4.91574 10.5084L11.5824 3.84176C11.9804 3.46368 12.5084 3.25287 13.0574 3.25287C13.6064 3.25287 14.1344 3.46368 14.5324 3.84176C14.9202 4.23475 15.1376 4.76465 15.1376 5.31676C15.1376 5.86887 14.9202 6.39877 14.5324 6.79176L8.78241 12.5334C8.7255 12.5947 8.65708 12.6442 8.58106 12.679C8.50503 12.7139 8.42288 12.7334 8.33931 12.7365C8.25574 12.7396 8.17238 12.7262 8.09398 12.6971C8.01558 12.6679 7.94369 12.6237 7.88241 12.5668C7.82113 12.5099 7.77165 12.4414 7.73681 12.3654C7.70197 12.2894 7.68244 12.2072 7.67935 12.1237C7.67625 12.0401 7.68965 11.9567 7.71877 11.8783C7.74789 11.7999 7.79217 11.728 7.84908 11.6668L12.1241 7.4001C12.281 7.24318 12.3692 7.03035 12.3692 6.80843C12.3692 6.58651 12.281 6.37368 12.1241 6.21676C11.9672 6.05984 11.7543 5.97169 11.5324 5.97169C11.3105 5.97169 11.0977 6.05984 10.9407 6.21676L6.66574 10.5001C6.45183 10.7123 6.28205 10.9648 6.16618 11.243C6.05032 11.5212 5.99067 11.8196 5.99067 12.1209C5.99067 12.4223 6.05032 12.7206 6.16618 12.9988C6.28205 13.277 6.45183 13.5295 6.66574 13.7418C7.10272 14.158 7.68308 14.3902 8.28657 14.3902C8.89007 14.3902 9.47043 14.158 9.90741 13.7418L15.6491 7.99176C16.3115 7.28089 16.6721 6.34065 16.6549 5.36915C16.6378 4.39764 16.2442 3.47072 15.5572 2.78365C14.8701 2.09659 13.9432 1.70303 12.9717 1.68589C12.0002 1.66875 11.0599 2.02936 10.3491 2.69176L3.68241 9.35843C2.78341 10.3541 2.30327 11.6583 2.34202 12.9992C2.38077 14.3402 2.93544 15.6145 3.89044 16.5566C4.84545 17.4987 6.12714 18.036 7.46848 18.0565C8.80982 18.077 10.1074 17.5792 11.0907 16.6668L16.2491 11.5168C16.3268 11.4391 16.3884 11.3468 16.4305 11.2453C16.4725 11.1438 16.4942 11.035 16.4942 10.9251C16.4942 10.8152 16.4725 10.7064 16.4305 10.6049C16.3884 10.5034 16.3268 10.4111 16.2491 10.3334C16.1714 10.2557 16.0791 10.1941 15.9776 10.152C15.8761 10.11 15.7673 10.0884 15.6574 10.0884C15.5475 10.0884 15.4387 10.11 15.3372 10.152C15.2357 10.1941 15.1434 10.2557 15.0657 10.3334V10.3501Z" fill="#9E9E9E"/>
</svg>
