<svg width="15" height="18" viewBox="0 0 15 18" fill="none" xmlns="http://www.w3.org/2000/svg">
<path d="M13.0657 9.35009L7.91574 14.5084C7.24059 15.1084 6.3617 15.4278 5.45884 15.4012C4.55599 15.3747 3.69741 15.0041 3.05872 14.3655C2.42003 13.7268 2.0495 12.8682 2.02292 11.9653C1.99635 11.0625 2.31573 10.1836 2.91574 9.50843L9.58241 2.84176C9.98043 2.46368 10.5084 2.25287 11.0574 2.25287C11.6064 2.25287 12.1344 2.46368 12.5324 2.84176C12.9202 3.23475 13.1376 3.76465 13.1376 4.31676C13.1376 4.86887 12.9202 5.39877 12.5324 5.79176L6.78241 11.5334C6.7255 11.5947 6.65708 11.6442 6.58106 11.679C6.50503 11.7139 6.42288 11.7334 6.33931 11.7365C6.25574 11.7396 6.17238 11.7262 6.09398 11.6971C6.01558 11.6679 5.94369 11.6237 5.88241 11.5668C5.82113 11.5099 5.77165 11.4414 5.73681 11.3654C5.70197 11.2894 5.68244 11.2072 5.67935 11.1237C5.67625 11.0401 5.68965 10.9567 5.71877 10.8783C5.74789 10.7999 5.79217 10.728 5.84908 10.6668L10.1241 6.4001C10.281 6.24318 10.3692 6.03035 10.3692 5.80843C10.3692 5.58651 10.281 5.37368 10.1241 5.21676C9.96716 5.05984 9.75433 4.97169 9.53241 4.97169C9.31049 4.97169 9.09766 5.05984 8.94074 5.21676L4.66574 9.5001C4.45183 9.71235 4.28205 9.96485 4.16618 10.243C4.05032 10.5212 3.99067 10.8196 3.99067 11.1209C3.99067 11.4223 4.05032 11.7206 4.16618 11.9988C4.28205 12.277 4.45183 12.5295 4.66574 12.7418C5.10272 13.158 5.68308 13.3902 6.28657 13.3902C6.89007 13.3902 7.47043 13.158 7.90741 12.7418L13.6491 6.99176C14.3115 6.28089 14.6721 5.34065 14.6549 4.36915C14.6378 3.39764 14.2442 2.47072 13.5572 1.78365C12.8701 1.09659 11.9432 0.703028 10.9717 0.685887C10.0002 0.668746 9.05995 1.02936 8.34908 1.69176L1.68241 8.35843C0.783408 9.35412 0.303266 10.6583 0.34202 11.9992C0.380774 13.3402 0.935436 14.6145 1.89044 15.5566C2.84545 16.4987 4.12714 17.036 5.46848 17.0565C6.80982 17.077 8.10735 16.5792 9.09074 15.6668L14.2491 10.5168C14.3268 10.4391 14.3884 10.3468 14.4305 10.2453C14.4725 10.1438 14.4942 10.035 14.4942 9.92509C14.4942 9.81521 14.4725 9.70641 14.4305 9.60489C14.3884 9.50337 14.3268 9.41113 14.2491 9.33343C14.1714 9.25573 14.0791 9.1941 13.9776 9.15205C13.8761 9.10999 13.7673 9.08835 13.6574 9.08835C13.5475 9.08835 13.4387 9.10999 13.3372 9.15205C13.2357 9.1941 13.1434 9.25573 13.0657 9.33343V9.35009Z" fill="#246BFD"/>
</svg>
