<svg width="20" height="20" viewBox="0 0 20 20" fill="none" xmlns="http://www.w3.org/2000/svg">
<path d="M15.0667 10.3501L9.91672 15.5084C9.24156 16.1084 8.36267 16.4278 7.45982 16.4012C6.55697 16.3747 5.69839 16.0041 5.0597 15.3655C4.42101 14.7268 4.05048 13.8682 4.0239 12.9653C3.99732 12.0625 4.3167 11.1836 4.91672 10.5084L11.5834 3.84176C11.9814 3.46368 12.5094 3.25287 13.0584 3.25287C13.6074 3.25287 14.1354 3.46368 14.5334 3.84176C14.9212 4.23475 15.1386 4.76465 15.1386 5.31676C15.1386 5.86887 14.9212 6.39877 14.5334 6.79176L8.78338 12.5334C8.72648 12.5947 8.65806 12.6442 8.58203 12.679C8.50601 12.7139 8.42386 12.7334 8.34029 12.7365C8.25672 12.7396 8.17335 12.7262 8.09496 12.6971C8.01656 12.6679 7.94467 12.6237 7.88339 12.5668C7.8221 12.5099 7.77263 12.4414 7.73779 12.3654C7.70294 12.2894 7.68342 12.2072 7.68032 12.1237C7.67723 12.0401 7.69062 11.9567 7.71974 11.8783C7.74887 11.7999 7.79315 11.728 7.85005 11.6668L12.1251 7.4001C12.282 7.24318 12.3701 7.03035 12.3701 6.80843C12.3701 6.58651 12.282 6.37368 12.1251 6.21676C11.9681 6.05984 11.7553 5.97169 11.5334 5.97169C11.3115 5.97169 11.0986 6.05984 10.9417 6.21676L6.66672 10.5001C6.45281 10.7123 6.28302 10.9648 6.16716 11.243C6.0513 11.5212 5.99165 11.8196 5.99165 12.1209C5.99165 12.4223 6.0513 12.7206 6.16716 12.9988C6.28302 13.277 6.45281 13.5295 6.66672 13.7418C7.1037 14.158 7.68406 14.3902 8.28755 14.3902C8.89104 14.3902 9.47141 14.158 9.90839 13.7418L15.6501 7.99176C16.3125 7.28089 16.6731 6.34065 16.6559 5.36915C16.6388 4.39764 16.2452 3.47072 15.5582 2.78365C14.8711 2.09659 13.9442 1.70303 12.9727 1.68589C12.0012 1.66875 11.0609 2.02936 10.3501 2.69176L3.68339 9.35843C2.78438 10.3541 2.30424 11.6583 2.343 12.9992C2.38175 14.3402 2.93641 15.6145 3.89142 16.5566C4.84642 17.4987 6.12812 18.036 7.46946 18.0565C8.8108 18.077 10.1083 17.5792 11.0917 16.6668L16.2501 11.5168C16.3278 11.4391 16.3894 11.3468 16.4314 11.2453C16.4735 11.1438 16.4951 11.035 16.4951 10.9251C16.4951 10.8152 16.4735 10.7064 16.4314 10.6049C16.3894 10.5034 16.3278 10.4111 16.2501 10.3334C16.1724 10.2557 16.0801 10.1941 15.9786 10.152C15.8771 10.11 15.7683 10.0884 15.6584 10.0884C15.5485 10.0884 15.4397 10.11 15.3382 10.152C15.2367 10.1941 15.1444 10.2557 15.0667 10.3334V10.3501Z" fill="#9E9E9E"/>
</svg>
