<svg width="34" height="34" viewBox="0 0 34 34" fill="none" xmlns="http://www.w3.org/2000/svg">
<path fill-rule="evenodd" clip-rule="evenodd" d="M24.7752 0.350233C27.1727 0.200388 29.5369 1.03286 31.3184 2.66451C32.9501 4.446 33.7826 6.81022 33.6494 9.22439V24.775C33.7992 27.1891 32.9501 29.5534 31.3351 31.3348C29.5536 32.9665 27.1727 33.799 24.7752 33.6491H9.22446C6.81027 33.799 4.44603 32.9665 2.66452 31.3348C1.03287 29.5534 0.200387 27.1891 0.350233 24.775V9.22439C0.200387 6.81022 1.03287 4.446 2.66452 2.66451C4.44603 1.03286 6.81027 0.200388 9.22446 0.350233H24.7752ZM15.3016 25.0747L26.5067 13.8363C27.5223 12.804 27.5223 11.1391 26.5067 10.1235L24.3423 7.95903C23.31 6.92676 21.645 6.92676 20.6128 7.95903L19.4972 9.09119C19.3307 9.25768 19.3307 9.54072 19.4972 9.70722C19.4972 9.70722 22.1445 12.3378 22.1945 12.4044C22.3776 12.6042 22.4942 12.8706 22.4942 13.1703C22.4942 13.7697 22.0113 14.2692 21.3953 14.2692C21.1123 14.2692 20.8459 14.1526 20.6627 13.9695L17.8822 11.2057C17.749 11.0725 17.5159 11.0725 17.3827 11.2057L9.4409 19.1475C8.89147 19.6969 8.57512 20.4295 8.55847 21.212L8.45858 25.1579C8.45858 25.3743 8.52518 25.5741 8.67502 25.724C8.82487 25.8738 9.02466 25.9571 9.24111 25.9571H13.1538C13.9529 25.9571 14.7188 25.6407 15.3016 25.0747Z" fill="#246BFD"/>
</svg>
