<svg width="16" height="8" viewBox="0 0 16 8" fill="none" xmlns="http://www.w3.org/2000/svg">
<path d="M15.105 0.164958C15.3821 0.407413 15.4102 0.828588 15.1677 1.10568L9.3344 7.77235C9.21476 7.90908 9.04449 7.99106 8.86299 7.99932C8.68149 8.00758 8.50448 7.9414 8.37291 7.8161L6.69466 6.21776L5.3344 7.77235C5.21476 7.90908 5.04449 7.99106 4.86299 7.99932C4.68149 8.00758 4.50448 7.9414 4.37291 7.8161L0.872913 4.48277C0.606293 4.22884 0.596001 3.80686 0.849925 3.54024C1.10385 3.27362 1.52583 3.26333 1.79245 3.51725L4.78889 6.371L5.72828 5.29741L4.87291 4.48277C4.60629 4.22884 4.596 3.80686 4.84993 3.54024C5.10385 3.27362 5.52583 3.26333 5.79245 3.51725L8.78889 6.371L14.1643 0.227673C14.4068 -0.0494184 14.8279 -0.0774967 15.105 0.164958Z" fill="url(#paint0_linear_1174_1009)"/>
<path d="M11.1677 1.10568C11.4102 0.828588 11.3821 0.407413 11.105 0.164958C10.8279 -0.0774967 10.4068 -0.0494184 10.1643 0.227673L7.83097 2.89434C7.58851 3.17143 7.61659 3.59261 7.89368 3.83506C8.17077 4.07752 8.59195 4.04944 8.8344 3.77235L11.1677 1.10568Z" fill="url(#paint1_linear_1174_1009)"/>
<defs>
<linearGradient id="paint0_linear_1174_1009" x1="15.3327" y1="8.00001" x2="0.581542" y2="0.158918" gradientUnits="userSpaceOnUse">
<stop stop-color="#246BFD"/>
<stop offset="1" stop-color="#5089FF"/>
</linearGradient>
<linearGradient id="paint1_linear_1174_1009" x1="15.3327" y1="8.00001" x2="0.581542" y2="0.158918" gradientUnits="userSpaceOnUse">
<stop stop-color="#246BFD"/>
<stop offset="1" stop-color="#5089FF"/>
</linearGradient>
</defs>
</svg>
