<svg width="26" height="24" viewBox="0 0 26 24" fill="none" xmlns="http://www.w3.org/2000/svg">
<path d="M13.3387 4.07842L15.0887 5.82842C15.1971 5.93777 15.3262 6.02457 15.4683 6.0838C15.6105 6.14303 15.763 6.17352 15.917 6.17352C16.071 6.17352 16.2235 6.14303 16.3657 6.0838C16.5078 6.02457 16.6369 5.93777 16.7453 5.82842C16.9224 5.64258 17.0332 5.40353 17.0606 5.14832C17.088 4.8931 17.0305 4.63597 16.897 4.41676H21.167C21.4764 4.41676 21.7732 4.29384 21.992 4.07505C22.2107 3.85626 22.3337 3.55951 22.3337 3.25009C22.3337 2.94067 22.2107 2.64393 21.992 2.42513C21.7732 2.20634 21.4764 2.08342 21.167 2.08342H16.897C17.0305 1.86421 17.088 1.60708 17.0606 1.35186C17.0332 1.09665 16.9224 0.857603 16.7453 0.671758C16.6369 0.562408 16.5078 0.475615 16.3657 0.416385C16.2235 0.357155 16.071 0.32666 15.917 0.32666C15.763 0.32666 15.6105 0.357155 15.4683 0.416385C15.3262 0.475615 15.1971 0.562408 15.0887 0.671758L13.3387 2.42176C13.2324 2.53271 13.1492 2.66355 13.0937 2.80676C12.977 3.0908 12.977 3.40939 13.0937 3.69342C13.1492 3.83663 13.2324 3.96747 13.3387 4.07842ZM25.7403 8.64009C25.6848 8.49688 25.6015 8.36605 25.4953 8.25509L23.7453 6.50509C23.6369 6.39574 23.5078 6.30895 23.3657 6.24972C23.2235 6.19049 23.071 6.15999 22.917 6.15999C22.763 6.15999 22.6105 6.19049 22.4683 6.24972C22.3262 6.30895 22.1971 6.39574 22.0887 6.50509C21.9116 6.69094 21.8008 6.92998 21.7734 7.1852C21.7459 7.44041 21.8035 7.69754 21.937 7.91676H17.667C17.3576 7.91676 17.0608 8.03967 16.842 8.25847C16.6232 8.47726 16.5003 8.77401 16.5003 9.08342C16.5003 9.39284 16.6232 9.68959 16.842 9.90838C17.0608 10.1272 17.3576 10.2501 17.667 10.2501H21.937C21.8035 10.4693 21.7459 10.7264 21.7734 10.9817C21.8008 11.2369 21.9116 11.4759 22.0887 11.6618C22.1971 11.7711 22.3262 11.8579 22.4683 11.9171C22.6105 11.9764 22.763 12.0069 22.917 12.0069C23.071 12.0069 23.2235 11.9764 23.3657 11.9171C23.5078 11.8579 23.6369 11.7711 23.7453 11.6618L25.4953 9.91176C25.6015 9.8008 25.6848 9.66997 25.7403 9.52676C25.857 9.24272 25.857 8.92413 25.7403 8.64009ZM11.8337 9.66676C10.9107 9.66676 10.0084 9.94045 9.241 10.4532C8.47357 10.966 7.87543 11.6948 7.52222 12.5476C7.16901 13.4003 7.0766 14.3386 7.25666 15.2438C7.43673 16.1491 7.88118 16.9806 8.53383 17.6333C9.18647 18.2859 10.018 18.7304 10.9232 18.9104C11.8285 19.0905 12.7668 18.9981 13.6195 18.6449C14.4722 18.2917 15.2011 17.6935 15.7139 16.9261C16.2266 16.1587 16.5003 15.2564 16.5003 14.3334C16.5003 13.0957 16.0087 11.9088 15.1335 11.0336C14.2583 10.1584 13.0713 9.66676 11.8337 9.66676V9.66676ZM11.8337 16.6668C11.3722 16.6668 10.921 16.5299 10.5373 16.2735C10.1536 16.0171 9.85454 15.6527 9.67794 15.2264C9.50134 14.8 9.45513 14.3308 9.54516 13.8782C9.63519 13.4256 9.85742 13.0098 10.1837 12.6835C10.5101 12.3572 10.9258 12.135 11.3784 12.0449C11.8311 11.9549 12.3002 12.0011 12.7266 12.1777C13.1529 12.3543 13.5174 12.6534 13.7738 13.0371C14.0301 13.4208 14.167 13.8719 14.167 14.3334C14.167 14.9523 13.9212 15.5458 13.4836 15.9833C13.046 16.4209 12.4525 16.6668 11.8337 16.6668ZM22.3337 13.1668C22.0242 13.1668 21.7275 13.2897 21.5087 13.5085C21.2899 13.7273 21.167 14.024 21.167 14.3334V20.1668C21.167 20.4762 21.0441 20.7729 20.8253 20.9917C20.6065 21.2105 20.3097 21.3334 20.0003 21.3334H3.66699C3.35757 21.3334 3.06083 21.2105 2.84203 20.9917C2.62324 20.7729 2.50033 20.4762 2.50033 20.1668V10.8334C2.50033 10.524 2.62324 10.2273 2.84203 10.0085C3.06083 9.78967 3.35757 9.66676 3.66699 9.66676H6.00033C6.2562 9.67928 6.50907 9.60723 6.71993 9.46175C6.93078 9.31626 7.08788 9.10541 7.16699 8.86176L7.79699 6.97176C7.86992 6.74704 8.00935 6.54977 8.19685 6.40602C8.38434 6.26228 8.61105 6.17885 8.84699 6.16676H10.667C10.9764 6.16676 11.2732 6.04384 11.492 5.82505C11.7107 5.60626 11.8337 5.30951 11.8337 5.00009C11.8337 4.69067 11.7107 4.39393 11.492 4.17513C11.2732 3.95634 10.9764 3.83342 10.667 3.83342H8.84699C8.11037 3.83316 7.39244 4.06532 6.79544 4.49684C6.19844 4.92835 5.7528 5.53723 5.52199 6.23676L5.16033 7.33342H3.66699C2.73873 7.33342 1.8485 7.70217 1.19212 8.35855C0.535741 9.01493 0.166992 9.90517 0.166992 10.8334V20.1668C0.166992 21.095 0.535741 21.9853 1.19212 22.6416C1.8485 23.298 2.73873 23.6668 3.66699 23.6668H20.0003C20.9286 23.6668 21.8188 23.298 22.4752 22.6416C23.1316 21.9853 23.5003 21.095 23.5003 20.1668V14.3334C23.5003 14.024 23.3774 13.7273 23.1586 13.5085C22.9398 13.2897 22.6431 13.1668 22.3337 13.1668Z" fill="white"/>
</svg>
