<svg width="24" height="24" viewBox="0 0 24 24" fill="none" xmlns="http://www.w3.org/2000/svg">
<path fill-rule="evenodd" clip-rule="evenodd" d="M0.333008 12.0177C0.333008 5.8718 5.24467 0.333496 12.023 0.333496C18.6497 0.333496 23.6663 5.76665 23.6663 11.9826C23.6663 19.1918 17.7863 23.6668 11.9997 23.6668C10.0863 23.6668 7.96301 23.1527 6.25967 22.1479C5.66467 21.7857 5.16301 21.5169 4.52134 21.7273L2.16467 22.4283C1.56967 22.6153 1.03301 22.1479 1.20801 21.5169L1.98967 18.8997C2.11801 18.5375 2.09467 18.1519 1.90801 17.8481C0.904674 16.002 0.333008 13.9806 0.333008 12.0177ZM10.483 12.0177C10.483 12.8473 11.148 13.5133 11.9763 13.525C12.8047 13.525 13.4697 12.8473 13.4697 12.0294C13.4697 11.1998 12.8047 10.5338 11.9763 10.5338C11.1597 10.5221 10.483 11.1998 10.483 12.0177ZM15.8613 12.0294C15.8613 12.8473 16.5263 13.525 17.3547 13.525C18.183 13.525 18.848 12.8473 18.848 12.0294C18.848 11.1998 18.183 10.5338 17.3547 10.5338C16.5263 10.5338 15.8613 11.1998 15.8613 12.0294ZM6.59801 13.525C5.78134 13.525 5.10467 12.8473 5.10467 12.0294C5.10467 11.1998 5.76967 10.5338 6.59801 10.5338C7.42634 10.5338 8.09134 11.1998 8.09134 12.0294C8.09134 12.8473 7.42634 13.5133 6.59801 13.525Z" fill="white"/>
</svg>
