<svg width="20" height="16" viewBox="0 0 20 16" fill="none" xmlns="http://www.w3.org/2000/svg">
<path fill-rule="evenodd" clip-rule="evenodd" d="M9.97668 14.9732C7.27751 14.9732 4.97168 14.5649 4.97168 12.9299C4.97168 11.2949 7.26251 9.87158 9.97668 9.87158C12.6758 9.87158 14.9817 11.2816 14.9817 12.9157C14.9817 14.5499 12.6908 14.9732 9.97668 14.9732Z" stroke="#212121" stroke-width="1.5" stroke-linecap="round" stroke-linejoin="round"/>
<path fill-rule="evenodd" clip-rule="evenodd" d="M9.9769 7.54035C11.7486 7.54035 13.1852 6.10451 13.1852 4.33285C13.1852 2.56118 11.7486 1.12451 9.9769 1.12451C8.20523 1.12451 6.76857 2.56118 6.76857 4.33285C6.76357 6.09785 8.18857 7.53451 9.9544 7.54035H9.9769Z" stroke="#212121" stroke-width="1.5" stroke-linecap="round" stroke-linejoin="round"/>
<path d="M15.3014 6.65953C16.3323 6.3837 17.0923 5.4437 17.0923 4.32453C17.0923 3.15703 16.2648 2.18203 15.1631 1.95703" stroke="#212121" stroke-width="1.5" stroke-linecap="round" stroke-linejoin="round"/>
<path d="M15.7861 9.28662C17.2478 9.28662 18.4961 10.2775 18.4961 11.1625C18.4961 11.6833 18.0653 12.2508 17.412 12.4041" stroke="#212121" stroke-width="1.5" stroke-linecap="round" stroke-linejoin="round"/>
<path d="M4.65299 6.65953C3.62133 6.3837 2.86133 5.4437 2.86133 4.32453C2.86133 3.15703 3.68966 2.18203 4.79049 1.95703" stroke="#212121" stroke-width="1.5" stroke-linecap="round" stroke-linejoin="round"/>
<path d="M4.16801 9.28662C2.70634 9.28662 1.45801 10.2775 1.45801 11.1625C1.45801 11.6833 1.88884 12.2508 2.54301 12.4041" stroke="#212121" stroke-width="1.5" stroke-linecap="round" stroke-linejoin="round"/>
</svg>
