<svg width="14" height="18" viewBox="0 0 14 18" fill="none" xmlns="http://www.w3.org/2000/svg">
<path fill-rule="evenodd" clip-rule="evenodd" d="M6.87078 17.0516C3.79426 17.0516 1.16699 16.5729 1.16699 14.6555C1.16699 12.7382 3.7776 10.9683 6.87078 10.9683C9.94729 10.9683 12.5746 12.7211 12.5746 14.6384C12.5746 16.5549 9.96396 17.0516 6.87078 17.0516Z" stroke="#212121" stroke-width="1.5" stroke-linecap="round" stroke-linejoin="round"/>
<path fill-rule="evenodd" clip-rule="evenodd" d="M6.86507 8.31136C8.88401 8.31136 10.5204 6.675 10.5204 4.65606C10.5204 2.63712 8.88401 1 6.86507 1C4.84613 1 3.20901 2.63712 3.20901 4.65606C3.20219 6.66818 4.82719 8.30455 6.83931 8.31136C6.8484 8.31136 6.85673 8.31136 6.86507 8.31136Z" stroke="#212121" stroke-width="1.5" stroke-linecap="round" stroke-linejoin="round"/>
</svg>
