<svg width="22" height="24" viewBox="0 0 22 24" fill="none" xmlns="http://www.w3.org/2000/svg">
<path d="M21.5 8.43004C21.4878 8.32286 21.4644 8.21728 21.43 8.11504V8.01004C21.3739 7.89008 21.2991 7.77982 21.2083 7.68337V7.68337L14.2083 0.683374C14.1119 0.592626 14.0016 0.517802 13.8817 0.461707C13.8468 0.456761 13.8115 0.456761 13.7767 0.461707C13.6582 0.393739 13.5273 0.350109 13.3917 0.333374H8.66667C7.73841 0.333374 6.84817 0.702123 6.19179 1.3585C5.53542 2.01488 5.16667 2.90512 5.16667 3.83337V5.00004H4C3.07174 5.00004 2.1815 5.36879 1.52513 6.02517C0.868749 6.68154 0.5 7.57178 0.5 8.50004V20.1667C0.5 21.095 0.868749 21.9852 1.52513 22.6416C2.1815 23.298 3.07174 23.6667 4 23.6667H13.3333C14.2616 23.6667 15.1518 23.298 15.8082 22.6416C16.4646 21.9852 16.8333 21.095 16.8333 20.1667V19H18C18.9283 19 19.8185 18.6313 20.4749 17.9749C21.1313 17.3185 21.5 16.4283 21.5 15.5V8.50004C21.5 8.50004 21.5 8.50004 21.5 8.43004ZM14.5 4.31171L17.5217 7.33337H15.6667C15.3572 7.33337 15.0605 7.21046 14.8417 6.99166C14.6229 6.77287 14.5 6.47613 14.5 6.16671V4.31171ZM14.5 20.1667C14.5 20.4761 14.3771 20.7729 14.1583 20.9917C13.9395 21.2105 13.6428 21.3334 13.3333 21.3334H4C3.69058 21.3334 3.39383 21.2105 3.17504 20.9917C2.95625 20.7729 2.83333 20.4761 2.83333 20.1667V8.50004C2.83333 8.19062 2.95625 7.89388 3.17504 7.67508C3.39383 7.45629 3.69058 7.33337 4 7.33337H5.16667V15.5C5.16667 16.4283 5.53542 17.3185 6.19179 17.9749C6.84817 18.6313 7.73841 19 8.66667 19H14.5V20.1667ZM19.1667 15.5C19.1667 15.8095 19.0438 16.1062 18.825 16.325C18.6062 16.5438 18.3094 16.6667 18 16.6667H8.66667C8.35725 16.6667 8.0605 16.5438 7.84171 16.325C7.62292 16.1062 7.5 15.8095 7.5 15.5V3.83337C7.5 3.52395 7.62292 3.22721 7.84171 3.00842C8.0605 2.78962 8.35725 2.66671 8.66667 2.66671H12.1667V6.16671C12.1667 7.09496 12.5354 7.9852 13.1918 8.64158C13.8482 9.29796 14.7384 9.66671 15.6667 9.66671H19.1667V15.5Z" fill="white"/>
</svg>
