<svg width="28" height="28" viewBox="0 0 28 28" fill="none" xmlns="http://www.w3.org/2000/svg">
<path d="M24.5 10.4297C24.4878 10.3225 24.4644 10.2169 24.43 10.1147V10.0097C24.3739 9.88972 24.2991 9.77945 24.2083 9.68301L17.2083 2.68301C17.1119 2.59226 17.0016 2.51744 16.8817 2.46134C16.8468 2.45639 16.8115 2.45639 16.7767 2.46134C16.6582 2.39337 16.5273 2.34974 16.3917 2.33301H11.6667C10.7384 2.33301 9.84817 2.70176 9.19179 3.35813C8.53542 4.01451 8.16667 4.90475 8.16667 5.83301V6.99967H7C6.07174 6.99967 5.1815 7.36842 4.52513 8.0248C3.86875 8.68118 3.5 9.57142 3.5 10.4997V22.1663C3.5 23.0946 3.86875 23.9848 4.52513 24.6412C5.1815 25.2976 6.07174 25.6663 7 25.6663H16.3333C17.2616 25.6663 18.1518 25.2976 18.8082 24.6412C19.4646 23.9848 19.8333 23.0946 19.8333 22.1663V20.9997H21C21.9283 20.9997 22.8185 20.6309 23.4749 19.9745C24.1313 19.3182 24.5 18.4279 24.5 17.4997V10.4997C24.5 10.4997 24.5 10.4997 24.5 10.4297ZM17.5 6.31134L20.5217 9.33301H18.6667C18.3572 9.33301 18.0605 9.21009 17.8417 8.9913C17.6229 8.77251 17.5 8.47576 17.5 8.16634V6.31134ZM17.5 22.1663C17.5 22.4758 17.3771 22.7725 17.1583 22.9913C16.9395 23.2101 16.6428 23.333 16.3333 23.333H7C6.69058 23.333 6.39383 23.2101 6.17504 22.9913C5.95625 22.7725 5.83333 22.4758 5.83333 22.1663V10.4997C5.83333 10.1903 5.95625 9.89351 6.17504 9.67472C6.39383 9.45592 6.69058 9.33301 7 9.33301H8.16667V17.4997C8.16667 18.4279 8.53542 19.3182 9.19179 19.9745C9.84817 20.6309 10.7384 20.9997 11.6667 20.9997H17.5V22.1663ZM22.1667 17.4997C22.1667 17.8091 22.0438 18.1058 21.825 18.3246C21.6062 18.5434 21.3094 18.6663 21 18.6663H11.6667C11.3572 18.6663 11.0605 18.5434 10.8417 18.3246C10.6229 18.1058 10.5 17.8091 10.5 17.4997V5.83301C10.5 5.52359 10.6229 5.22684 10.8417 5.00805C11.0605 4.78926 11.3572 4.66634 11.6667 4.66634H15.1667V8.16634C15.1667 9.0946 15.5354 9.98484 16.1918 10.6412C16.8482 11.2976 17.7384 11.6663 18.6667 11.6663H22.1667V17.4997Z" fill="white"/>
</svg>
