<svg width="22" height="24" viewBox="0 0 22 24" fill="none" xmlns="http://www.w3.org/2000/svg">
<path d="M15.6667 2.67111H14.9783L15.3283 2.33278C15.4371 2.224 15.5234 2.09486 15.5823 1.95274C15.6411 1.81061 15.6714 1.65828 15.6714 1.50445C15.6714 1.35061 15.6411 1.19828 15.5823 1.05616C15.5234 0.914032 15.4371 0.784893 15.3283 0.676115C15.2196 0.567336 15.0904 0.481049 14.9483 0.422178C14.8062 0.363308 14.6538 0.333008 14.5 0.333008C14.1893 0.333008 13.8914 0.456427 13.6717 0.676115L11.3383 3.00945C11.229 3.1179 11.1422 3.24694 11.083 3.38911C11.0237 3.53128 10.9932 3.68377 10.9932 3.83778C10.9932 3.9918 11.0237 4.14429 11.083 4.28645C11.1422 4.42862 11.229 4.55766 11.3383 4.66611L13.6717 6.99945C13.7801 7.1088 13.9092 7.19559 14.0513 7.25482C14.1935 7.31405 14.346 7.34455 14.5 7.34455C14.654 7.34455 14.8065 7.31405 14.9487 7.25482C15.0908 7.19559 15.2199 7.1088 15.3283 6.99945C15.4377 6.89099 15.5245 6.76196 15.5837 6.61979C15.6429 6.47762 15.6734 6.32513 15.6734 6.17111C15.6734 6.0171 15.6429 5.86461 15.5837 5.72244C15.5245 5.58027 15.4377 5.45124 15.3283 5.34278L14.9783 5.00445H15.6667C16.5949 5.00445 17.4852 5.3732 18.1415 6.02957C18.7979 6.68595 19.1667 7.57619 19.1667 8.50445V10.8378C19.1667 11.1472 19.2896 11.4439 19.5084 11.6627C19.7272 11.8815 20.0239 12.0044 20.3333 12.0044C20.6428 12.0044 20.9395 11.8815 21.1583 11.6627C21.3771 11.4439 21.5 11.1472 21.5 10.8378V8.50445C21.5 6.95735 20.8854 5.47362 19.7915 4.37966C18.6975 3.2857 17.2138 2.67111 15.6667 2.67111V2.67111ZM15.6667 19.0044H14.5V10.8378C14.5 10.5284 14.3771 10.2316 14.1583 10.0128C13.9395 9.79403 13.6428 9.67111 13.3333 9.67111H5.16667V8.50445C5.16667 8.19503 5.04375 7.89828 4.82496 7.67949C4.60617 7.4607 4.30942 7.33778 4 7.33778C3.69058 7.33778 3.39383 7.4607 3.17504 7.67949C2.95625 7.89828 2.83333 8.19503 2.83333 8.50445V9.67111H1.66667C1.35725 9.67111 1.0605 9.79403 0.841709 10.0128C0.622916 10.2316 0.5 10.5284 0.5 10.8378C0.5 11.1472 0.622916 11.4439 0.841709 11.6627C1.0605 11.8815 1.35725 12.0044 1.66667 12.0044H2.83333V20.1711C2.83333 20.4805 2.95625 20.7773 3.17504 20.9961C3.39383 21.2149 3.69058 21.3378 4 21.3378H12.1667V22.5044C12.1667 22.8139 12.2896 23.1106 12.5084 23.3294C12.7272 23.5482 13.0239 23.6711 13.3333 23.6711C13.6428 23.6711 13.9395 23.5482 14.1583 23.3294C14.3771 23.1106 14.5 22.8139 14.5 22.5044V21.3378H15.6667C15.9761 21.3378 16.2728 21.2149 16.4916 20.9961C16.7104 20.7773 16.8333 20.4805 16.8333 20.1711C16.8333 19.8617 16.7104 19.5649 16.4916 19.3462C16.2728 19.1274 15.9761 19.0044 15.6667 19.0044ZM12.1667 19.0044H5.16667V12.0044H12.1667V19.0044Z" fill="white"/>
</svg>
