<svg width="28" height="28" viewBox="0 0 28 28" fill="none" xmlns="http://www.w3.org/2000/svg">
<path fill-rule="evenodd" clip-rule="evenodd" d="M23.6683 6.11647C24.1222 6.11647 24.5 6.4933 24.5 6.9728V7.41612C24.5 7.88395 24.1222 8.27245 23.6683 8.27245H4.33283C3.87784 8.27245 3.5 7.88395 3.5 7.41612V6.9728C3.5 6.4933 3.87784 6.11647 4.33283 6.11647H7.73449C8.42549 6.11647 9.02685 5.62531 9.1823 4.93232L9.36044 4.13666C9.63729 3.05283 10.5484 2.33301 11.5911 2.33301H16.4088C17.4402 2.33301 18.3616 3.05283 18.6282 4.07949L18.8188 4.93115C18.9731 5.62531 19.5745 6.11647 20.2666 6.11647H23.6683ZM21.9401 22.3227C22.2953 19.0129 22.9171 11.1497 22.9171 11.0703C22.9398 10.83 22.8615 10.6025 22.706 10.4193C22.5392 10.2478 22.3282 10.1463 22.0956 10.1463H5.91328C5.67954 10.1463 5.45715 10.2478 5.30284 10.4193C5.14626 10.6025 5.0691 10.83 5.08045 11.0703C5.08253 11.0849 5.10484 11.3619 5.14214 11.8249C5.30785 13.8821 5.76936 19.6115 6.06759 22.3227C6.27863 24.32 7.58915 25.5753 9.48741 25.6208C10.9522 25.6547 12.4613 25.6663 14.0044 25.6663C15.4579 25.6663 16.9341 25.6547 18.4443 25.6208C20.4084 25.587 21.7177 24.3539 21.9401 22.3227Z" fill="white"/>
</svg>
