<svg width="28" height="28" viewBox="0 0 28 28" fill="none" xmlns="http://www.w3.org/2000/svg">
<path d="M13.1015 8.50561V3.82842C13.1015 3.3311 13.4981 2.91667 13.9998 2.91667C14.449 2.91667 14.8295 3.26491 14.8898 3.70601L14.8981 3.82842V8.50561L20.4747 8.50596C23.2513 8.50596 25.5326 10.7797 25.6607 13.6155L25.6663 13.8671V19.7463C25.6663 22.6019 23.4644 24.9459 20.729 25.0775L20.4863 25.0833H7.51301C4.73634 25.0833 2.46611 22.8209 2.33865 19.9748L2.33301 19.7222L2.33301 13.8551C2.33301 10.9995 4.5239 8.64408 7.25867 8.51182L7.50134 8.50596H13.1013V15.9754L11.2347 14.0478C10.8847 13.6864 10.313 13.6864 9.96301 14.0478C9.78801 14.2285 9.70634 14.4695 9.70634 14.7104C9.70634 14.8936 9.75861 15.0844 9.86911 15.2459L9.96301 15.361L13.358 18.8789C13.5213 19.0596 13.7547 19.156 13.9997 19.156C14.1941 19.156 14.3886 19.089 14.5425 18.9621L14.6297 18.8789L18.0247 15.361C18.3747 14.9996 18.3747 14.4092 18.0247 14.0478C17.7065 13.7192 17.2051 13.6894 16.8536 13.9582L16.753 14.0478L14.898 15.9754V8.50596L13.1015 8.50561Z" fill="white"/>
</svg>
