<svg width="24" height="24" viewBox="0 0 24 24" fill="none" xmlns="http://www.w3.org/2000/svg">
<path d="M14.753 14.6016C13.9731 15.2304 13.0015 15.5733 11.9997 15.5733C10.9979 15.5733 10.0262 15.2304 9.24635 14.6016C9.00809 14.4036 8.70093 14.3083 8.39243 14.3367C8.08394 14.3652 7.79937 14.515 7.60135 14.7533C7.40332 14.9915 7.30805 15.2987 7.33649 15.6072C7.36493 15.9157 7.51476 16.2002 7.75301 16.3983C8.94457 17.393 10.4475 17.9378 11.9997 17.9378C13.5519 17.9378 15.0548 17.393 16.2463 16.3983C16.4846 16.2002 16.6344 15.9157 16.6629 15.6072C16.6913 15.2987 16.596 14.9915 16.398 14.7533C16.3 14.6353 16.1796 14.5378 16.0439 14.4663C15.9082 14.3948 15.7597 14.3508 15.6069 14.3367C15.2984 14.3083 14.9913 14.4036 14.753 14.6016V14.6016ZM8.49968 10.8333C8.73042 10.8333 8.95599 10.7648 9.14784 10.6366C9.3397 10.5084 9.48924 10.3262 9.57754 10.113C9.66584 9.89987 9.68894 9.66529 9.64393 9.43898C9.59891 9.21267 9.4878 9.00479 9.32464 8.84163C9.16148 8.67847 8.9536 8.56735 8.72728 8.52234C8.50097 8.47732 8.2664 8.50042 8.05321 8.58873C7.84003 8.67703 7.65783 8.82656 7.52963 9.01842C7.40144 9.21028 7.33301 9.43584 7.33301 9.66658C7.33301 9.976 7.45593 10.2728 7.67472 10.4915C7.89351 10.7103 8.19026 10.8333 8.49968 10.8333ZM15.4997 8.49992C15.2689 8.49992 15.0434 8.56834 14.8515 8.69654C14.6597 8.82473 14.5101 9.00694 14.4218 9.22012C14.3335 9.4333 14.3104 9.66788 14.3554 9.89419C14.4004 10.1205 14.5116 10.3284 14.6747 10.4915C14.8379 10.6547 15.0458 10.7658 15.2721 10.8108C15.4984 10.8559 15.733 10.8327 15.9461 10.7444C16.1593 10.6561 16.3415 10.5066 16.4697 10.3148C16.5979 10.1229 16.6663 9.89733 16.6663 9.66658C16.6663 9.35717 16.5434 9.06042 16.3246 8.84163C16.1058 8.62283 15.8091 8.49992 15.4997 8.49992ZM11.9997 0.333252C9.69223 0.333252 7.4366 1.01749 5.51803 2.29944C3.59945 3.58139 2.10411 5.40347 1.22109 7.53528C0.338063 9.66708 0.107024 12.0129 0.557185 14.276C1.00735 16.5391 2.11849 18.6179 3.7501 20.2495C5.38171 21.8811 7.46051 22.9923 9.72363 23.4424C11.9867 23.8926 14.3325 23.6615 16.4643 22.7785C18.5961 21.8955 20.4182 20.4001 21.7002 18.4816C22.9821 16.563 23.6663 14.3074 23.6663 11.9999C23.6663 10.4678 23.3646 8.95074 22.7783 7.53528C22.192 6.11981 21.3326 4.83369 20.2493 3.75034C19.1659 2.66699 17.8798 1.80763 16.4643 1.22132C15.0489 0.635019 13.5318 0.333252 11.9997 0.333252V0.333252ZM11.9997 21.3333C10.1537 21.3333 8.34922 20.7859 6.81436 19.7603C5.2795 18.7347 4.08322 17.2771 3.3768 15.5716C2.67039 13.8662 2.48556 11.9896 2.84568 10.1791C3.20581 8.36859 4.09473 6.70555 5.40002 5.40026C6.70531 4.09497 8.36835 3.20605 10.1788 2.84592C11.9893 2.48579 13.8659 2.67063 15.5714 3.37704C17.2768 4.08346 18.7345 5.27974 19.7601 6.8146C20.7856 8.34945 21.333 10.154 21.333 11.9999C21.333 14.4753 20.3497 16.8492 18.5993 18.5996C16.849 20.3499 14.475 21.3333 11.9997 21.3333V21.3333Z" fill="white"/>
</svg>
