<svg width="20" height="24" viewBox="0 0 20 24" fill="none" xmlns="http://www.w3.org/2000/svg">
<path d="M19.1814 8.03345C19.0944 7.83362 18.9533 7.66213 18.7739 7.53841C18.5945 7.41469 18.384 7.34369 18.1664 7.33345H12.823L14.3047 1.80345C14.3519 1.6304 14.3585 1.44881 14.3241 1.27277C14.2897 1.09674 14.2152 0.931002 14.1064 0.788448C13.9977 0.647264 13.8581 0.532849 13.6983 0.453978C13.5386 0.375107 13.3629 0.333876 13.1847 0.333448H5.01803C4.75464 0.324426 4.49595 0.404848 4.2841 0.561615C4.07226 0.718383 3.91973 0.942259 3.85136 1.19678L0.724694 12.8634C0.677505 13.0365 0.670851 13.2181 0.705248 13.3941C0.739646 13.5702 0.814169 13.7359 0.923027 13.8784C1.03291 14.0212 1.17436 14.1366 1.33629 14.2155C1.49821 14.2944 1.67622 14.3348 1.85636 14.3334H6.37136L4.25969 22.1968C4.19051 22.4503 4.20897 22.7198 4.31208 22.9616C4.41519 23.2034 4.59692 23.4032 4.82781 23.5288C5.05871 23.6544 5.32524 23.6983 5.58422 23.6535C5.84319 23.6086 6.07945 23.4777 6.25469 23.2818L18.9714 9.28178C19.1228 9.11598 19.2231 8.91 19.2604 8.68857C19.2976 8.46714 19.2702 8.23967 19.1814 8.03345V8.03345ZM7.75969 18.1601L9.00803 13.4934C9.05522 13.3204 9.06187 13.1388 9.02747 12.9628C8.99308 12.7867 8.91855 12.621 8.80969 12.4784C8.70101 12.3373 8.56143 12.2228 8.40167 12.144C8.24191 12.0651 8.0662 12.0239 7.88803 12.0234H3.40803L5.90469 2.66678H11.6564L10.1747 8.19678C10.1271 8.37301 10.1216 8.55795 10.1585 8.73672C10.1954 8.91548 10.2737 9.0831 10.3872 9.22608C10.5007 9.36906 10.6461 9.48342 10.8119 9.55996C10.9776 9.6365 11.1589 9.67309 11.3414 9.66678H15.5064L7.75969 18.1601Z" fill="white"/>
</svg>
