<svg width="20" height="16" viewBox="0 0 20 16" fill="none" xmlns="http://www.w3.org/2000/svg">
<path fill-rule="evenodd" clip-rule="evenodd" d="M9.97766 14.9732C7.27849 14.9732 4.97266 14.5649 4.97266 12.9299C4.97266 11.2949 7.26349 9.87158 9.97766 9.87158C12.6768 9.87158 14.9827 11.2816 14.9827 12.9157C14.9827 14.5499 12.6918 14.9732 9.97766 14.9732Z" stroke="#FAFAFA" stroke-width="1.5" stroke-linecap="round" stroke-linejoin="round"/>
<path fill-rule="evenodd" clip-rule="evenodd" d="M9.97788 7.54035C11.7495 7.54035 13.1862 6.10451 13.1862 4.33285C13.1862 2.56118 11.7495 1.12451 9.97788 1.12451C8.20621 1.12451 6.76954 2.56118 6.76954 4.33285C6.76454 6.09785 8.18954 7.53451 9.95538 7.54035H9.97788Z" stroke="#FAFAFA" stroke-width="1.5" stroke-linecap="round" stroke-linejoin="round"/>
<path d="M15.3024 6.65953C16.3332 6.3837 17.0932 5.4437 17.0932 4.32453C17.0932 3.15703 16.2657 2.18203 15.1641 1.95703" stroke="#FAFAFA" stroke-width="1.5" stroke-linecap="round" stroke-linejoin="round"/>
<path d="M15.7871 9.28662C17.2488 9.28662 18.4971 10.2775 18.4971 11.1625C18.4971 11.6833 18.0663 12.2508 17.4129 12.4041" stroke="#FAFAFA" stroke-width="1.5" stroke-linecap="round" stroke-linejoin="round"/>
<path d="M4.65495 6.65953C3.62328 6.3837 2.86328 5.4437 2.86328 4.32453C2.86328 3.15703 3.69161 2.18203 4.79245 1.95703" stroke="#FAFAFA" stroke-width="1.5" stroke-linecap="round" stroke-linejoin="round"/>
<path d="M4.16898 9.28662C2.70732 9.28662 1.45898 10.2775 1.45898 11.1625C1.45898 11.6833 1.88982 12.2508 2.54398 12.4041" stroke="#FAFAFA" stroke-width="1.5" stroke-linecap="round" stroke-linejoin="round"/>
</svg>
