<svg width="18" height="18" viewBox="0 0 18 18" fill="none" xmlns="http://www.w3.org/2000/svg">
<path fill-rule="evenodd" clip-rule="evenodd" d="M5.38881 17.3334H12.611C15.4362 17.3334 17.3337 15.3517 17.3337 12.4028V5.59735C17.3337 2.64851 15.4362 0.666748 12.6118 0.666748H5.38881C2.56441 0.666748 0.666992 2.64851 0.666992 5.59735V12.4028C0.666992 15.3517 2.56441 17.3334 5.38881 17.3334ZM6.08271 8.16675C4.93384 8.16675 4.00033 7.23197 4.00033 6.08342C4.00033 4.93486 4.93384 4.00008 6.08271 4.00008C7.23074 4.00008 8.16509 4.93486 8.16509 6.08342C8.16509 7.23197 7.23074 8.16675 6.08271 8.16675ZM15.5177 11.445C15.7967 12.1606 15.6517 13.0205 15.3534 13.7292C14.9998 14.572 14.3227 15.2101 13.4696 15.4887C13.0909 15.6126 12.6937 15.6667 12.2973 15.6667H5.2742C4.57532 15.6667 3.95689 15.499 3.44991 15.1869C3.13232 14.9908 3.07617 14.5384 3.31165 14.2452C3.7055 13.755 4.09432 13.2631 4.48649 12.7669C5.23397 11.8174 5.7376 11.5422 6.29737 11.7839C6.52446 11.8836 6.75239 12.0333 6.98703 12.1915C7.61216 12.6164 8.48115 13.2003 9.62583 12.5665C10.4092 12.1277 10.8635 11.3752 11.2591 10.7199L11.2658 10.7089C11.2937 10.663 11.3215 10.6171 11.3491 10.5714L11.3493 10.5711L11.3493 10.5711C11.4823 10.3511 11.6134 10.134 11.7618 9.93403C11.9479 9.68378 12.6375 8.90118 13.5308 9.45846C14.0998 9.80934 14.5783 10.2841 15.0903 10.7923C15.2855 10.9867 15.4247 11.2077 15.5177 11.445Z" fill="#9E9E9E"/>
</svg>
