<svg width="20" height="20" viewBox="0 0 20 20" fill="none" xmlns="http://www.w3.org/2000/svg">
<path fill-rule="evenodd" clip-rule="evenodd" d="M2.29102 10.0001C2.29102 15.7809 4.21852 17.7084 9.99935 17.7084C15.7802 17.7084 17.7077 15.7809 17.7077 10.0001C17.7077 4.21925 15.7802 2.29175 9.99935 2.29175C4.21852 2.29175 2.29102 4.21925 2.29102 10.0001Z" stroke="#FAFAFA" stroke-width="1.5" stroke-linecap="round" stroke-linejoin="round"/>
<path fill-rule="evenodd" clip-rule="evenodd" d="M8.83148 7.32028C8.83148 8.13112 8.17482 8.78778 7.36398 8.78778C6.55398 8.78778 5.89648 8.13112 5.89648 7.32028C5.89648 6.50945 6.55398 5.85278 7.36398 5.85278C8.17482 5.85278 8.83148 6.50945 8.83148 7.32028Z" stroke="#FAFAFA" stroke-width="1.5" stroke-linecap="round" stroke-linejoin="round"/>
<path d="M17.599 12.2222C16.8649 11.4672 15.8265 9.94141 13.919 9.94141C12.0115 9.94141 11.9699 13.3064 10.0232 13.3064C8.0757 13.3064 7.29154 12.1639 6.02237 12.7606C4.75404 13.3564 3.7207 15.7281 3.7207 15.7281" stroke="#FAFAFA" stroke-width="1.5" stroke-linecap="round" stroke-linejoin="round"/>
</svg>
