<svg width="28" height="28" viewBox="0 0 28 28" fill="none" xmlns="http://www.w3.org/2000/svg">
<path fill-rule="evenodd" clip-rule="evenodd" d="M0.666992 19.4403V8.54699C0.666992 3.84033 3.69499 0.666992 8.21366 0.666992H19.7737C24.2937 0.666992 27.3337 3.84033 27.3337 8.54699V19.4403C27.3337 24.1603 24.2937 27.3337 19.7737 27.3337H8.21366C3.69499 27.3337 0.666992 24.1603 0.666992 19.4403ZM15.0003 17.027V8.56033C15.0003 8.00033 14.547 7.56033 14.0003 7.56033C13.4403 7.56033 13.0003 8.00033 13.0003 8.56033V17.027L9.70699 13.7203C9.52033 13.5337 9.25366 13.427 9.00033 13.427C8.74833 13.427 8.49366 13.5337 8.29366 13.7203C7.90699 14.107 7.90699 14.747 8.29366 15.1337L13.2937 20.1603C13.667 20.5337 14.3337 20.5337 14.707 20.1603L19.707 15.1337C20.0937 14.747 20.0937 14.107 19.707 13.7203C19.307 13.3337 18.6803 13.3337 18.2803 13.7203L15.0003 17.027Z" fill="#246BFD"/>
</svg>
