<svg width="14" height="14" viewBox="0 0 14 14" fill="none" xmlns="http://www.w3.org/2000/svg">
<path fill-rule="evenodd" clip-rule="evenodd" d="M0.333008 9.72016V4.2735C0.333008 1.92016 1.84701 0.333496 4.10634 0.333496H9.88634C12.1463 0.333496 13.6663 1.92016 13.6663 4.2735V9.72016C13.6663 12.0802 12.1463 13.6668 9.88634 13.6668H4.10634C1.84701 13.6668 0.333008 12.0802 0.333008 9.72016ZM7.49967 8.5135V4.28016C7.49967 4.00016 7.27301 3.78016 6.99967 3.78016C6.71967 3.78016 6.49967 4.00016 6.49967 4.28016V8.5135L4.85301 6.86016C4.75968 6.76683 4.62634 6.7135 4.49967 6.7135C4.37367 6.7135 4.24634 6.76683 4.14634 6.86016C3.95301 7.0535 3.95301 7.3735 4.14634 7.56683L6.64634 10.0802C6.83301 10.2668 7.16634 10.2668 7.35301 10.0802L9.85301 7.56683C10.0463 7.3735 10.0463 7.0535 9.85301 6.86016C9.65301 6.66683 9.33967 6.66683 9.13967 6.86016L7.49967 8.5135Z" fill="#246BFD"/>
</svg>
