<svg width="28" height="28" viewBox="0 0 28 28" fill="none" xmlns="http://www.w3.org/2000/svg">
<path fill-rule="evenodd" clip-rule="evenodd" d="M19.051 2.33203H8.93602C4.98102 2.33203 2.33268 5.1087 2.33268 9.2387V18.7715C2.33268 22.8899 4.98102 25.6654 8.93602 25.6654H19.051C23.006 25.6654 25.666 22.8899 25.666 18.7715V9.2387C25.666 5.1087 23.006 2.33203 19.051 2.33203ZM14.011 10.5699C14.5593 10.5699 15.0143 10.1137 15.0143 9.55486C15.0143 8.9832 14.5593 8.5282 13.9877 8.5282C13.4277 8.5282 12.9727 8.9832 12.9727 9.55486C12.9727 10.1137 13.4277 10.5699 14.011 10.5699ZM12.9843 18.4099C12.9843 18.9699 13.4393 19.4249 14.011 19.4249C14.571 19.4249 15.026 18.9699 15.026 18.4099V13.2532C15.026 12.692 14.571 12.2265 14.011 12.2265C13.4393 12.2265 12.9843 12.692 12.9843 13.2532V18.4099Z" fill="white"/>
</svg>
