<svg width="14" height="14" viewBox="0 0 14 14" fill="none" xmlns="http://www.w3.org/2000/svg">
<path d="M5.66721 10.7L4.48721 11.8467C4.17779 12.1561 3.75813 12.3299 3.32054 12.3299C2.88296 12.3299 2.46329 12.1561 2.15388 11.8467C1.84446 11.5373 1.67063 11.1176 1.67063 10.68C1.67063 10.2424 1.84446 9.82277 2.15388 9.51336L5.18054 6.48002C5.47762 6.18198 5.87789 6.00954 6.29855 5.99837C6.71921 5.9872 7.12807 6.13817 7.44054 6.42002L7.52054 6.48669C7.64696 6.61046 7.81737 6.67893 7.99428 6.67706C8.17119 6.67518 8.34011 6.60311 8.46387 6.47669C8.58764 6.35027 8.65612 6.17986 8.65425 6.00295C8.65237 5.82604 8.5803 5.65712 8.45388 5.53336C8.41625 5.48471 8.3762 5.43798 8.33388 5.39336C7.76478 4.89823 7.02876 4.63792 6.27492 4.66515C5.52108 4.69239 4.80576 5.00512 4.27388 5.54002L1.20721 8.57335C0.686113 9.14055 0.404289 9.88713 0.420592 10.6572C0.436894 11.4272 0.750063 12.1612 1.2947 12.7059C1.83933 13.2505 2.57332 13.5637 3.34337 13.58C4.11343 13.5963 4.86001 13.3145 5.42721 12.7934L6.58054 11.6667C6.69442 11.5425 6.75702 11.3797 6.75575 11.2112C6.75448 11.0427 6.68942 10.8809 6.57368 10.7584C6.45794 10.6359 6.3001 10.5617 6.13192 10.5509C5.96374 10.5401 5.7977 10.5934 5.66721 10.7V10.7ZM12.7939 1.20669C12.2331 0.64936 11.4745 0.336548 10.6839 0.336548C9.89323 0.336548 9.13469 0.64936 8.57387 1.20669L7.42054 2.33336C7.30666 2.45759 7.24406 2.62034 7.24534 2.78887C7.24661 2.95739 7.31166 3.11918 7.4274 3.24168C7.54314 3.36418 7.70098 3.4383 7.86916 3.44912C8.03735 3.45995 8.20339 3.40667 8.33388 3.30002L9.48721 2.15336C9.79663 1.84394 10.2163 1.67011 10.6539 1.67011C11.0915 1.67011 11.5111 1.84394 11.8205 2.15336C12.13 2.46277 12.3038 2.88244 12.3038 3.32002C12.3038 3.75761 12.13 4.17727 11.8205 4.48669L8.79387 7.52002C8.4968 7.81806 8.09653 7.9905 7.67587 8.00167C7.2552 8.01284 6.84635 7.86188 6.53388 7.58002L6.45388 7.51336C6.32746 7.38959 6.15705 7.32111 5.98014 7.32298C5.80323 7.32486 5.63431 7.39694 5.51054 7.52336C5.38677 7.64977 5.3183 7.82018 5.32017 7.99709C5.32205 8.174 5.39412 8.34292 5.52054 8.46669C5.56897 8.51621 5.62016 8.56296 5.67388 8.60669C6.24366 9.10032 6.97936 9.35965 7.73274 9.33244C8.48612 9.30522 9.20119 8.99348 9.73388 8.46002L12.7672 5.42669C13.3281 4.86941 13.6457 4.11284 13.6507 3.32219C13.6557 2.53153 13.3477 1.77102 12.7939 1.20669V1.20669Z" fill="white"/>
</svg>
