<svg width="20" height="20" viewBox="0 0 20 20" fill="none" xmlns="http://www.w3.org/2000/svg">
<path d="M7.99984 15.55L6.22984 17.27C5.76571 17.7341 5.13621 17.9948 4.47984 17.9948C3.82346 17.9948 3.19397 17.7341 2.72984 17.27C2.26571 16.8058 2.00496 16.1763 2.00496 15.52C2.00496 14.8636 2.26571 14.2341 2.72984 13.77L7.26984 9.21997C7.71545 8.77291 8.31586 8.51425 8.94685 8.4975C9.57784 8.48075 10.1911 8.70719 10.6598 9.12997L10.7798 9.22997C10.9695 9.41562 11.2251 9.51834 11.4904 9.51553C11.7558 9.51272 12.0092 9.4046 12.1948 9.21497C12.3805 9.02534 12.4832 8.76973 12.4804 8.50437C12.4776 8.239 12.3695 7.98562 12.1798 7.79997C12.1234 7.727 12.0633 7.65691 11.9998 7.58997C11.1462 6.84729 10.0422 6.45682 8.9114 6.49767C7.78064 6.53852 6.70767 7.00763 5.90984 7.80997L1.30984 12.36C0.528193 13.2108 0.105457 14.3306 0.129911 15.4857C0.154365 16.6408 0.624118 17.7418 1.44107 18.5587C2.25802 19.3757 3.359 19.8454 4.51408 19.8699C5.66917 19.8944 6.78904 19.4716 7.63984 18.69L9.36984 17C9.54065 16.8136 9.63455 16.5695 9.63265 16.3167C9.63074 16.0639 9.53316 15.8212 9.35955 15.6375C9.18594 15.4537 8.94917 15.3426 8.6969 15.3263C8.44463 15.3101 8.19557 15.39 7.99984 15.55ZM18.6898 1.30997C17.8486 0.47398 16.7108 0.00476074 15.5248 0.00476074C14.3389 0.00476074 13.2011 0.47398 12.3598 1.30997L10.6298 2.99997C10.459 3.18632 10.3651 3.43045 10.367 3.68324C10.3689 3.93603 10.4665 4.17871 10.6401 4.36246C10.8137 4.54621 11.0505 4.65739 11.3028 4.67362C11.555 4.68986 11.8041 4.60995 11.9998 4.44997L13.7298 2.72997C14.194 2.26584 14.8235 2.0051 15.4798 2.0051C16.1362 2.0051 16.7657 2.26584 17.2298 2.72997C17.694 3.1941 17.9547 3.8236 17.9547 4.47997C17.9547 5.13635 17.694 5.76584 17.2298 6.22997L12.6898 10.78C12.2442 11.227 11.6438 11.4857 11.0128 11.5024C10.3818 11.5192 9.76854 11.2928 9.29984 10.87L9.17984 10.77C8.99021 10.5843 8.73459 10.4816 8.46923 10.4844C8.20387 10.4872 7.95049 10.5953 7.76484 10.785C7.57919 10.9746 7.47647 11.2302 7.47928 11.4956C7.48209 11.7609 7.59021 12.0143 7.77984 12.2C7.85247 12.2743 7.92926 12.3444 8.00984 12.41C8.86451 13.1504 9.96806 13.5394 11.0981 13.4986C12.2282 13.4578 13.3008 12.9902 14.0998 12.19L18.6498 7.63997C19.4912 6.80405 19.9676 5.6692 19.9751 4.48322C19.9826 3.29724 19.5205 2.15646 18.6898 1.30997Z" fill="white"/>
</svg>
