<svg width="20" height="24" viewBox="0 0 20 24" fill="none" xmlns="http://www.w3.org/2000/svg">
<path fill-rule="evenodd" clip-rule="evenodd" d="M10.2045 15.7535H9.79654C6.99259 15.7535 4.71982 13.5081 4.71982 10.7403V5.34649C4.71982 2.5776 6.99259 0.333252 9.79654 0.333252H10.2045C13.0085 0.333252 15.2824 2.5776 15.2824 5.34649V10.7403C15.2824 13.5081 13.0085 15.7535 10.2045 15.7535ZM17.657 10.5799C17.657 9.96276 18.1633 9.46389 18.7871 9.46389C19.411 9.46389 19.9173 9.96276 19.9173 10.5799C19.9173 15.601 16.068 19.7471 11.1314 20.304V22.5505C11.1314 23.1666 10.6251 23.6666 10.0012 23.6666C9.37623 23.6666 8.87105 23.1666 8.87105 22.5505V20.304C3.93334 19.7471 0.0839844 15.601 0.0839844 10.5799C0.0839844 9.96276 0.5903 9.46389 1.21415 9.46389C1.83801 9.46389 2.34432 9.96276 2.34432 10.5799C2.34432 14.7483 5.7789 18.14 10.0012 18.14C14.2224 18.14 17.657 14.7483 17.657 10.5799Z" fill="white"/>
</svg>
