<svg width="14" height="14" viewBox="0 0 14 14" fill="none" xmlns="http://www.w3.org/2000/svg">
<path fill-rule="evenodd" clip-rule="evenodd" d="M4.11301 0.333008H9.89301C12.153 0.333008 13.6663 1.91967 13.6663 4.27967V9.72701C13.6663 12.0803 12.153 13.6663 9.89301 13.6663H4.11301C1.85301 13.6663 0.333008 12.0803 0.333008 9.72701V4.27967C0.333008 1.91967 1.85301 0.333008 4.11301 0.333008ZM9.00634 8.99967C9.23301 8.77367 9.23301 8.40701 9.00634 8.18034L7.81967 6.99367L9.00634 5.80634C9.23301 5.58034 9.23301 5.20701 9.00634 4.98034C8.77967 4.75301 8.41301 4.75301 8.17967 4.98034L6.99967 6.16634L5.81301 4.98034C5.57967 4.75301 5.21301 4.75301 4.98634 4.98034C4.75967 5.20701 4.75967 5.58034 4.98634 5.80634L6.17301 6.99367L4.98634 8.17367C4.75967 8.40701 4.75967 8.77367 4.98634 8.99967C5.09967 9.11301 5.25301 9.17367 5.39967 9.17367C5.55301 9.17367 5.69967 9.11301 5.81301 8.99967L6.99967 7.82034L8.18634 8.99967C8.29967 9.12034 8.44634 9.17367 8.59301 9.17367C8.74634 9.17367 8.89301 9.11301 9.00634 8.99967Z" fill="#F75555"/>
</svg>
