<svg width="14" height="14" viewBox="0 0 14 14" fill="none" xmlns="http://www.w3.org/2000/svg">
<path fill-rule="evenodd" clip-rule="evenodd" d="M13.6663 4.28016V9.72683C13.6663 12.0802 12.1523 13.6668 9.89301 13.6668H4.11301C1.85301 13.6668 0.333008 12.0802 0.333008 9.72683V4.28016C0.333008 1.92016 1.85301 0.333496 4.11301 0.333496H9.89301C12.1523 0.333496 13.6663 1.92016 13.6663 4.28016ZM6.49967 5.48683V9.72016C6.49967 10.0002 6.72634 10.2202 6.99967 10.2202C7.27967 10.2202 7.49967 10.0002 7.49967 9.72016V5.48683L9.14634 7.14016C9.23967 7.2335 9.37301 7.28683 9.49967 7.28683C9.62567 7.28683 9.75301 7.2335 9.85301 7.14016C10.0463 6.94683 10.0463 6.62683 9.85301 6.4335L7.35301 3.92016C7.16634 3.7335 6.83301 3.7335 6.64634 3.92016L4.14634 6.4335C3.95301 6.62683 3.95301 6.94683 4.14634 7.14016C4.34634 7.3335 4.65967 7.3335 4.85967 7.14016L6.49967 5.48683Z" fill="#4ADE80"/>
</svg>
