<svg width="26" height="26" viewBox="0 0 26 26" fill="none" xmlns="http://www.w3.org/2000/svg">
<path d="M7.65736 17.1301C7.44007 17.3487 7.3181 17.6444 7.3181 17.9526C7.3181 18.2608 7.44007 18.5565 7.65736 18.7751C7.76582 18.8845 7.89485 18.9713 8.03702 19.0305C8.17919 19.0897 8.33168 19.1202 8.4857 19.1202C8.63971 19.1202 8.7922 19.0897 8.93437 19.0305C9.07654 18.9713 9.20557 18.8845 9.31403 18.7751C9.53132 18.5565 9.65329 18.2608 9.65329 17.9526C9.65329 17.6444 9.53132 17.3487 9.31403 17.1301C9.20557 17.0208 9.07654 16.934 8.93437 16.8747C8.7922 16.8155 8.63971 16.785 8.4857 16.785C8.33168 16.785 8.17919 16.8155 8.03702 16.8747C7.89485 16.934 7.76582 17.0208 7.65736 17.1301V17.1301ZM7.65736 7.22512C7.44007 7.44371 7.3181 7.73941 7.3181 8.04762C7.3181 8.35584 7.44007 8.65153 7.65736 8.87012C7.76582 8.97947 7.89485 9.06626 8.03702 9.12549C8.17919 9.18472 8.33168 9.21522 8.4857 9.21522C8.63971 9.21522 8.7922 9.18472 8.93437 9.12549C9.07654 9.06626 9.20557 8.97947 9.31403 8.87012C9.53132 8.65153 9.65329 8.35584 9.65329 8.04762C9.65329 7.73941 9.53132 7.44371 9.31403 7.22512C9.20557 7.11577 9.07654 7.02898 8.93437 6.96975C8.7922 6.91052 8.63971 6.88002 8.4857 6.88002C8.33168 6.88002 8.17919 6.91052 8.03702 6.96975C7.89485 7.02898 7.76582 7.11577 7.65736 7.22512ZM13.4324 18.8918C13.2016 18.8918 12.9761 18.9602 12.7842 19.0884C12.5923 19.2166 12.4428 19.3988 12.3545 19.612C12.2662 19.8252 12.2431 20.0598 12.2881 20.2861C12.3331 20.5124 12.4442 20.7203 12.6074 20.8834C12.7706 21.0466 12.9784 21.1577 13.2048 21.2027C13.4311 21.2477 13.6656 21.2246 13.8788 21.1363C14.092 21.048 14.2742 20.8985 14.4024 20.7066C14.5306 20.5148 14.599 20.2892 14.599 20.0585C14.6069 19.9004 14.5826 19.7424 14.5275 19.5941C14.4725 19.4457 14.3878 19.3101 14.2786 19.1955C14.1695 19.0809 14.0382 18.9897 13.8927 18.9275C13.7472 18.8653 13.5906 18.8333 13.4324 18.8335V18.8918ZM6.43236 11.8918C6.20162 11.8918 5.97605 11.9602 5.7842 12.0884C5.59234 12.2166 5.4428 12.3988 5.3545 12.612C5.2662 12.8252 5.2431 13.0597 5.28811 13.2861C5.33313 13.5124 5.44424 13.7203 5.6074 13.8834C5.77057 14.0466 5.97845 14.1577 6.20476 14.2027C6.43107 14.2477 6.66565 14.2246 6.87883 14.1363C7.09201 14.048 7.27421 13.8985 7.40241 13.7066C7.5306 13.5148 7.59903 13.2892 7.59903 13.0585C7.60694 12.9004 7.58262 12.7424 7.52754 12.5941C7.47246 12.4457 7.38778 12.3101 7.27865 12.1955C7.16952 12.0809 7.03821 11.9897 6.89272 11.9275C6.74723 11.8653 6.59061 11.8333 6.43236 11.8335V11.8918ZM13.4324 4.89179C13.2016 4.89179 12.9761 4.96021 12.7842 5.08841C12.5923 5.2166 12.4428 5.39881 12.3545 5.61199C12.2662 5.82517 12.2431 6.05975 12.2881 6.28606C12.3331 6.51237 12.4442 6.72025 12.6074 6.88341C12.7706 7.04657 12.9784 7.15769 13.2048 7.2027C13.4311 7.24772 13.6656 7.22462 13.8788 7.13631C14.092 7.04801 14.2742 6.89848 14.4024 6.70662C14.5306 6.51476 14.599 6.2892 14.599 6.05846C14.6069 5.90041 14.5826 5.74241 14.5275 5.59406C14.4725 5.44571 14.3878 5.31011 14.2786 5.19552C14.1695 5.08093 14.0382 4.98974 13.8927 4.9275C13.7472 4.86525 13.5906 4.83326 13.4324 4.83345V4.89179ZM17.5624 7.28345C17.3985 7.44634 17.2867 7.65421 17.2411 7.88071C17.1955 8.10721 17.2182 8.34214 17.3063 8.55572C17.3944 8.76931 17.544 8.95193 17.736 9.08043C17.928 9.20893 18.1538 9.27753 18.3849 9.27753C18.6159 9.27753 18.8417 9.20893 19.0337 9.08043C19.2258 8.95193 19.3753 8.76931 19.4634 8.55572C19.5515 8.34214 19.5742 8.10721 19.5286 7.88071C19.483 7.65421 19.3712 7.44634 19.2074 7.28345C18.9966 7.05824 18.7052 6.92566 18.3969 6.91473C18.0886 6.9038 17.7886 7.0154 17.5624 7.22512V7.28345ZM24.9124 7.28345C23.8457 5.15114 22.2062 3.35811 20.1776 2.10544C18.1489 0.852768 15.8115 0.189984 13.4272 0.191409C11.043 0.192833 8.70633 0.85841 6.67921 2.1135C4.65208 3.3686 3.01467 5.16358 1.95059 7.29718C0.886503 9.43077 0.437819 11.8186 0.654848 14.1929C0.871877 16.5672 1.74604 18.8342 3.17931 20.7395C4.61258 22.6448 6.54828 24.1132 8.76936 24.98C10.9904 25.8467 13.4091 26.0776 15.754 25.6468C16.3437 25.5358 16.9054 25.3084 17.4062 24.9779C17.907 24.6474 18.3368 24.2204 18.6707 23.7218C19.0304 23.1798 19.2786 22.5715 19.4008 21.9325C19.523 21.2936 19.5167 20.6366 19.3824 20.0001C19.3089 19.6155 19.2699 19.225 19.2657 18.8335C19.2708 17.7029 19.6043 16.5982 20.2257 15.6537C20.8471 14.7092 21.7295 13.9657 22.7657 13.5135C23.3244 13.2633 23.8259 12.9013 24.2392 12.4499C24.6526 11.9984 24.969 11.467 25.169 10.8885C25.3713 10.2973 25.4528 9.67152 25.4088 9.04825C25.3647 8.42499 25.1959 7.81692 24.9124 7.26012V7.28345ZM22.929 10.1301C22.8295 10.4093 22.6749 10.6657 22.4745 10.8842C22.2741 11.1026 22.032 11.2786 21.7624 11.4018C20.3273 12.0442 19.1082 13.0871 18.2515 14.4054C17.3947 15.7237 16.9366 17.2612 16.9324 18.8335C16.9341 19.3819 16.9888 19.9289 17.0957 20.4668C17.1669 20.7956 17.1717 21.1353 17.1095 21.4659C17.0474 21.7965 16.9197 22.1113 16.734 22.3918C16.5769 22.6373 16.3701 22.8471 16.127 23.0079C15.8838 23.1686 15.6098 23.2767 15.3224 23.3251C14.6992 23.4422 14.0664 23.5008 13.4324 23.5001C12.0256 23.5008 10.633 23.2188 9.33727 22.6708C8.04158 22.1228 6.86923 21.32 5.88982 20.3102C4.91041 19.3003 4.14392 18.1039 3.63588 16.792C3.12784 15.4802 2.88859 14.0796 2.93236 12.6735C3.02291 10.0517 4.0862 7.55757 5.9151 5.67691C7.74399 3.79625 10.2075 2.66378 12.8257 2.50012H13.4207C15.3757 2.50061 17.2918 3.04692 18.9532 4.07753C20.6145 5.10814 21.9551 6.58211 22.824 8.33346C23.0915 8.8876 23.1292 9.52495 22.929 10.1068V10.1301ZM13.4324 11.8335C13.2016 11.8335 12.9761 11.9019 12.7842 12.0301C12.5923 12.1583 12.4428 12.3405 12.3545 12.5537C12.2662 12.7668 12.2431 13.0014 12.2881 13.2277C12.3331 13.454 12.4442 13.6619 12.6074 13.8251C12.7706 13.9882 12.9784 14.0994 13.2048 14.1444C13.4311 14.1894 13.6656 14.1663 13.8788 14.078C14.092 13.9897 14.2742 13.8401 14.4024 13.6483C14.5306 13.4564 14.599 13.2309 14.599 13.0001C14.599 12.6907 14.4761 12.394 14.2573 12.1752C14.0385 11.9564 13.7418 11.8335 13.4324 11.8335Z" fill="white"/>
</svg>
