<svg width="14" height="14" viewBox="0 0 14 14" fill="none" xmlns="http://www.w3.org/2000/svg">
<path fill-rule="evenodd" clip-rule="evenodd" d="M4.11144 13.6666H9.88919C12.1494 13.6666 13.6673 12.0812 13.6673 9.72217V4.27779C13.6673 1.91872 12.1494 0.333313 9.88986 0.333313H4.11144C1.85191 0.333313 0.333984 1.91872 0.333984 4.27779V9.72217C0.333984 12.0812 1.85191 13.6666 4.11144 13.6666ZM4.66656 6.33331C3.74746 6.33331 3.00065 5.58549 3.00065 4.66665C3.00065 3.7478 3.74746 2.99998 4.66656 2.99998C5.58498 2.99998 6.33246 3.7478 6.33246 4.66665C6.33246 5.58549 5.58498 6.33331 4.66656 6.33331ZM12.2145 8.95595C12.4378 9.52836 12.3218 10.2164 12.0831 10.7833C11.8002 11.4575 11.2586 11.968 10.5761 12.1909C10.2731 12.29 9.95533 12.3333 9.63824 12.3333H4.01975C3.46065 12.3333 2.9659 12.1992 2.56032 11.9494C2.30624 11.7925 2.26133 11.4307 2.44971 11.1961C2.76479 10.8039 3.07585 10.4104 3.38959 10.0134C3.98757 9.25385 4.39047 9.03369 4.83829 9.22702C5.01996 9.30683 5.20231 9.42654 5.39001 9.55313C5.89012 9.893 6.58531 10.3601 7.50105 9.85309C8.12772 9.50211 8.49119 8.90007 8.8077 8.37579L8.813 8.36703C8.83542 8.33025 8.85765 8.29347 8.87982 8.25679L8.87983 8.25677C8.9862 8.08077 9.09115 7.90712 9.20986 7.74714C9.35869 7.54694 9.91042 6.92086 10.625 7.36668C11.0802 7.64738 11.463 8.02716 11.8726 8.43376C12.0288 8.58925 12.1401 8.76606 12.2145 8.95595Z" fill="#246BFD"/>
</svg>
