<svg width="28" height="28" viewBox="0 0 28 28" fill="none" xmlns="http://www.w3.org/2000/svg">
<path d="M24.5793 10.0696L18.949 4.43927C18.5895 4.07987 18.1498 3.81103 17.666 3.65491C17.1822 3.49879 16.6683 3.45986 16.1665 3.54132C15.6647 3.62279 15.1895 3.82231 14.78 4.12346C14.3704 4.42461 14.0383 4.81876 13.811 5.27344L10.9702 10.9551C10.868 11.16 10.6895 11.3166 10.4732 11.3914L5.61283 13.0714C5.3792 13.1522 5.16993 13.291 5.00466 13.4748C4.83939 13.6586 4.72355 13.8814 4.66803 14.1222C4.61251 14.3631 4.61912 14.6141 4.68725 14.8517C4.75538 15.0894 4.88278 15.3058 5.0575 15.4806L8.67883 19.1019L3.5 24.2819V25.5186H4.73667L9.91667 20.3386L13.538 23.9611C13.7128 24.1361 13.9293 24.2637 14.1671 24.332C14.4048 24.4003 14.656 24.407 14.8971 24.3515C15.1381 24.2959 15.3611 24.18 15.545 24.0146C15.7289 23.8491 15.8677 23.6396 15.9483 23.4058L17.6283 18.5454C17.7029 18.3293 17.8591 18.1509 18.0635 18.0484L23.7452 15.2076C24.1998 14.9803 24.594 14.6482 24.8951 14.2386C25.1963 13.8291 25.3958 13.3539 25.4773 12.8521C25.5587 12.3503 25.5198 11.8364 25.3637 11.3526C25.2076 10.8689 24.9387 10.4291 24.5793 10.0696V10.0696Z" fill="white"/>
</svg>
