<svg width="20" height="20" viewBox="0 0 20 20" fill="none" xmlns="http://www.w3.org/2000/svg">
<path fill-rule="evenodd" clip-rule="evenodd" d="M1.66602 10.0049C1.66602 5.40529 5.40636 1.66675 9.99935 1.66675C14.5923 1.66675 18.3327 5.40529 18.3327 10.0049C18.3327 14.5949 14.5923 18.3334 9.99935 18.3334C5.40636 18.3334 1.66602 14.5949 1.66602 10.0049ZM13.056 10.8483C13.1445 10.7599 13.2571 10.6232 13.2812 10.591C13.4099 10.4222 13.4743 10.2131 13.4743 10.0049C13.4743 9.77095 13.4019 9.55387 13.2651 9.37699C13.2539 9.36579 13.232 9.34191 13.2034 9.31078C13.1499 9.25254 13.0731 9.16895 12.9997 9.0956C12.3401 8.38809 10.6187 7.23034 9.71782 6.87659C9.58107 6.82111 9.23519 6.69971 9.05019 6.69167C8.87322 6.69167 8.7043 6.73187 8.54343 6.81227C8.34234 6.92483 8.18146 7.10171 8.09298 7.31074C8.03667 7.45546 7.94819 7.88961 7.94819 7.89765C7.85971 8.37201 7.81145 9.14383 7.81145 9.99606C7.81145 10.8089 7.85971 11.5478 7.9321 12.0302C7.93409 12.0321 7.94101 12.0666 7.95176 12.1202C7.98444 12.2832 8.05252 12.6226 8.12515 12.7618C8.30212 13.0995 8.648 13.3085 9.01801 13.3085H9.05019C9.2915 13.3005 9.79825 13.0914 9.79825 13.0834C10.6509 12.7296 12.332 11.6282 13.0077 10.8965L13.056 10.8483Z" fill="url(#paint0_linear_1137_54428)"/>
<defs>
<linearGradient id="paint0_linear_1137_54428" x1="18.3327" y1="18.3334" x2="-1.49915" y2="12.5834" gradientUnits="userSpaceOnUse">
<stop stop-color="#246BFD"/>
<stop offset="1" stop-color="#5089FF"/>
</linearGradient>
</defs>
</svg>
