<svg width="24" height="24" viewBox="0 0 24 24" fill="none" xmlns="http://www.w3.org/2000/svg">
<path d="M22.4997 10.8334C22.1903 10.8334 21.8935 10.9563 21.6747 11.1751C21.4559 11.3939 21.333 11.6906 21.333 12C21.3469 14.1852 20.5983 16.3069 19.2163 17.9996C17.8342 19.6922 15.9051 20.85 13.7613 21.2734C11.6175 21.6968 9.39309 21.3594 7.47126 20.3193C5.54944 19.2791 4.05048 17.6014 3.23255 15.575C2.41463 13.5486 2.32893 11.3004 2.99023 9.21763C3.65153 7.13485 5.01843 5.34786 6.8555 4.16445C8.69256 2.98103 10.8848 2.47527 13.0546 2.73427C15.2245 2.99327 17.2361 4.00081 18.743 5.58337H15.943C15.6336 5.58337 15.3368 5.70629 15.1181 5.92508C14.8993 6.14387 14.7763 6.44062 14.7763 6.75004C14.7763 7.05946 14.8993 7.35621 15.1181 7.575C15.3368 7.79379 15.6336 7.91671 15.943 7.91671H21.228C21.5374 7.91671 21.8342 7.79379 22.053 7.575C22.2718 7.35621 22.3947 7.05946 22.3947 6.75004V1.50004C22.3947 1.19062 22.2718 0.893875 22.053 0.675082C21.8342 0.45629 21.5374 0.333374 21.228 0.333374C20.9186 0.333374 20.6218 0.45629 20.4031 0.675082C20.1843 0.893875 20.0613 1.19062 20.0613 1.50004V3.56504C18.1185 1.70778 15.5939 0.578318 12.9144 0.367591C10.2348 0.156864 7.56475 0.877792 5.35542 2.40851C3.14609 3.93923 1.53306 6.18585 0.788978 8.7686C0.0449004 11.3513 0.215423 14.1118 1.27172 16.5833C2.32802 19.0549 4.2053 21.0859 6.58622 22.333C8.96715 23.5802 11.7057 23.967 14.3389 23.4281C16.9721 22.8892 19.3385 21.4576 21.038 19.3753C22.7375 17.2931 23.666 14.6878 23.6663 12C23.6663 11.6906 23.5434 11.3939 23.3246 11.1751C23.1058 10.9563 22.8091 10.8334 22.4997 10.8334Z" fill="#424242"/>
</svg>
