<svg width="24" height="24" viewBox="0 0 24 24" fill="none" xmlns="http://www.w3.org/2000/svg">
<path d="M22.5007 10.8334C22.1912 10.8334 21.8945 10.9563 21.6757 11.1751C21.4569 11.3939 21.334 11.6906 21.334 12C21.3479 14.1852 20.5993 16.3069 19.2173 17.9996C17.8352 19.6922 15.9061 20.85 13.7623 21.2734C11.6184 21.6968 9.39406 21.3594 7.47224 20.3193C5.55042 19.2791 4.05146 17.6014 3.23353 15.575C2.4156 13.5486 2.32991 11.3004 2.99121 9.21763C3.65251 7.13485 5.0194 5.34786 6.85647 4.16445C8.69354 2.98103 10.8858 2.47527 13.0556 2.73427C15.2255 2.99327 17.2371 4.00081 18.744 5.58337H15.944C15.6346 5.58337 15.3378 5.70629 15.119 5.92508C14.9002 6.14387 14.7773 6.44062 14.7773 6.75004C14.7773 7.05946 14.9002 7.35621 15.119 7.575C15.3378 7.79379 15.6346 7.91671 15.944 7.91671H21.229C21.5384 7.91671 21.8352 7.79379 22.0539 7.575C22.2727 7.35621 22.3957 7.05946 22.3957 6.75004V1.50004C22.3957 1.19062 22.2727 0.893875 22.0539 0.675082C21.8352 0.45629 21.5384 0.333374 21.229 0.333374C20.9196 0.333374 20.6228 0.45629 20.404 0.675082C20.1852 0.893875 20.0623 1.19062 20.0623 1.50004V3.56504C18.1194 1.70778 15.5949 0.578318 12.9153 0.367591C10.2358 0.156864 7.56572 0.877792 5.35639 2.40851C3.14707 3.93923 1.53403 6.18585 0.789954 8.7686C0.045877 11.3513 0.2164 14.1118 1.2727 16.5833C2.32899 19.0549 4.20627 21.0859 6.5872 22.333C8.96813 23.5802 11.7067 23.967 14.3399 23.4281C16.9731 22.8892 19.3395 21.4576 21.039 19.3753C22.7385 17.2931 23.6669 14.6878 23.6673 12C23.6673 11.6906 23.5444 11.3939 23.3256 11.1751C23.1068 10.9563 22.8101 10.8334 22.5007 10.8334Z" fill="white"/>
</svg>
