<svg width="28" height="28" viewBox="0 0 28 28" fill="none" xmlns="http://www.w3.org/2000/svg">
<path fill-rule="evenodd" clip-rule="evenodd" d="M9.83167 3.5C10.3217 3.5 10.7195 3.89012 10.7195 4.37175C10.7195 4.85225 10.3228 5.24236 9.83167 5.24236L7.93117 5.24351C6.35383 5.2458 5.0705 6.50538 5.0705 8.05326V10.2223C5.0705 10.7028 4.6715 11.0941 4.1815 11.0941C3.6915 11.0941 3.29367 10.7028 3.29367 10.2223V8.05326C3.29367 5.54553 5.37383 3.50343 7.93 3.50114L9.8305 3.5H9.83167ZM18.2 3.50034H20.0585C22.6217 3.50034 24.7054 5.54359 24.7054 8.05703V10.2227C24.7054 10.7032 24.3087 11.0944 23.8175 11.0944C23.3275 11.0944 22.9297 10.7032 22.9297 10.2227V8.05703C22.9297 6.50458 21.6417 5.24156 20.0585 5.24156H18.2C17.71 5.24156 17.3122 4.85259 17.3122 4.3721C17.3122 3.89046 17.71 3.50034 18.2 3.50034ZM17.2223 7.86643H10.7776C9.30293 7.88131 8.1176 9.06309 8.13043 10.5103V11.9632C8.13393 12.1325 8.27277 12.271 8.44543 12.2767H19.5521C19.7259 12.2721 19.8648 12.1337 19.8706 11.9632V10.5103C19.8718 9.81129 19.5964 9.13974 19.0994 8.6398C18.6059 8.14443 17.9281 7.86643 17.2223 7.86643ZM2.05502 14.0481H25.9449C26.4349 14.0481 26.8327 14.4382 26.8327 14.9199C26.8327 15.4004 26.4349 15.7893 25.9449 15.7893H24.7059V19.9422C24.7059 22.4568 22.621 24.5 20.059 24.5H18.2005C17.7094 24.5 17.3115 24.1099 17.3115 23.6282C17.3115 23.1478 17.7094 22.7576 18.2005 22.7576H20.059C21.6422 22.7576 22.9302 21.4958 22.9302 19.9422V15.7893H19.87V16.9459C19.8817 18.3931 18.6975 19.5761 17.2217 19.5898H10.777C9.30235 19.5761 8.11818 18.3931 8.12985 16.9459V15.7893H5.06968V19.9467C5.06968 21.4946 6.35418 22.7542 7.93268 22.7565L9.83202 22.7576C10.322 22.7576 10.7198 23.1478 10.7198 23.6282C10.7187 24.1099 10.322 24.5 9.83085 24.5L7.93035 24.4989C5.37418 24.4966 3.29285 22.4545 3.29285 19.9467V15.7893H2.05502C1.56502 15.7893 1.16602 15.4004 1.16602 14.9199C1.16602 14.4382 1.56502 14.0481 2.05502 14.0481Z" fill="#246BFD"/>
</svg>
