<svg width="26" height="22" viewBox="0 0 26 22" fill="none" xmlns="http://www.w3.org/2000/svg">
<path fill-rule="evenodd" clip-rule="evenodd" d="M8.83167 0.5C9.32167 0.5 9.7195 0.890116 9.7195 1.37175C9.7195 1.85225 9.32283 2.24236 8.83167 2.24236L6.93117 2.24351C5.35383 2.2458 4.0705 3.50538 4.0705 5.05326V7.22234C4.0705 7.70284 3.6715 8.0941 3.1815 8.0941C2.6915 8.0941 2.29367 7.70284 2.29367 7.22234V5.05326C2.29367 2.54553 4.37383 0.503432 6.93 0.501144L8.8305 0.5H8.83167ZM17.2 0.500343H19.0585C21.6217 0.500343 23.7054 2.54359 23.7054 5.05703V7.22269C23.7054 7.70318 23.3087 8.09444 22.8175 8.09444C22.3275 8.09444 21.9297 7.70318 21.9297 7.22269V5.05703C21.9297 3.50458 20.6417 2.24156 19.0585 2.24156H17.2C16.71 2.24156 16.3122 1.85259 16.3122 1.3721C16.3122 0.890459 16.71 0.500343 17.2 0.500343ZM16.2223 4.86643H9.7776C8.30293 4.88131 7.1176 6.06309 7.13043 7.5103V8.96322C7.13393 9.13254 7.27277 9.27096 7.44543 9.27668H18.5521C18.7259 9.27211 18.8648 9.13368 18.8706 8.96322V7.5103C18.8718 6.81129 18.5964 6.13974 18.0994 5.6398C17.6059 5.14443 16.9281 4.86643 16.2223 4.86643ZM1.05502 11.0481H24.9449C25.4349 11.0481 25.8327 11.4382 25.8327 11.9199C25.8327 12.4004 25.4349 12.7893 24.9449 12.7893H23.7059V16.9422C23.7059 19.4568 21.621 21.5 19.059 21.5H17.2005C16.7094 21.5 16.3115 21.1099 16.3115 20.6282C16.3115 20.1478 16.7094 19.7576 17.2005 19.7576H19.059C20.6422 19.7576 21.9302 18.4958 21.9302 16.9422V12.7893H18.87V13.9459C18.8817 15.3931 17.6975 16.5761 16.2217 16.5898H9.77702C8.30235 16.5761 7.11818 15.3931 7.12985 13.9459V12.7893H4.06968V16.9467C4.06968 18.4946 5.35418 19.7542 6.93268 19.7565L8.83202 19.7576C9.32202 19.7576 9.71985 20.1478 9.71985 20.6282C9.71868 21.1099 9.32202 21.5 8.83085 21.5L6.93035 21.4989C4.37418 21.4966 2.29285 19.4545 2.29285 16.9467V12.7893H1.05502C0.565016 12.7893 0.166016 12.4004 0.166016 11.9199C0.166016 11.4382 0.565016 11.0481 1.05502 11.0481Z" fill="white"/>
</svg>
