<svg width="26" height="22" viewBox="0 0 26 22" fill="none" xmlns="http://www.w3.org/2000/svg">
<path fill-rule="evenodd" clip-rule="evenodd" d="M8.83264 0.5C9.32264 0.5 9.72048 0.890116 9.72048 1.37175C9.72048 1.85225 9.32381 2.24236 8.83264 2.24236L6.93214 2.24351C5.35481 2.2458 4.07148 3.50538 4.07148 5.05326V7.22234C4.07148 7.70284 3.67248 8.0941 3.18248 8.0941C2.69248 8.0941 2.29464 7.70284 2.29464 7.22234V5.05326C2.29464 2.54553 4.37481 0.503432 6.93098 0.501144L8.83148 0.5H8.83264ZM17.201 0.500343H19.0595C21.6227 0.500343 23.7064 2.54359 23.7064 5.05703V7.22269C23.7064 7.70318 23.3097 8.09444 22.8185 8.09444C22.3285 8.09444 21.9307 7.70318 21.9307 7.22269V5.05703C21.9307 3.50458 20.6427 2.24156 19.0595 2.24156H17.201C16.711 2.24156 16.3132 1.85259 16.3132 1.3721C16.3132 0.890459 16.711 0.500343 17.201 0.500343ZM16.2232 4.86643H9.77857C8.30391 4.88131 7.11858 6.06309 7.13141 7.5103V8.96322C7.13491 9.13254 7.27374 9.27096 7.44641 9.27668H18.5531C18.7269 9.27211 18.8657 9.13368 18.8716 8.96322V7.5103C18.8727 6.81129 18.5974 6.13974 18.1004 5.6398C17.6069 5.14443 16.9291 4.86643 16.2232 4.86643ZM1.05599 11.0481H24.9458C25.4358 11.0481 25.8337 11.4382 25.8337 11.9199C25.8337 12.4004 25.4358 12.7893 24.9458 12.7893H23.7068V16.9422C23.7068 19.4568 21.622 21.5 19.06 21.5H17.2015C16.7103 21.5 16.3125 21.1099 16.3125 20.6282C16.3125 20.1478 16.7103 19.7576 17.2015 19.7576H19.06C20.6432 19.7576 21.9312 18.4958 21.9312 16.9422V12.7893H18.871V13.9459C18.8827 15.3931 17.6985 16.5761 16.2227 16.5898H9.77799C8.30333 16.5761 7.11916 15.3931 7.13083 13.9459V12.7893H4.07066V16.9467C4.07066 18.4946 5.35516 19.7542 6.93366 19.7565L8.83299 19.7576C9.32299 19.7576 9.72083 20.1478 9.72083 20.6282C9.71966 21.1099 9.32299 21.5 8.83183 21.5L6.93133 21.4989C4.37516 21.4966 2.29383 19.4545 2.29383 16.9467V12.7893H1.05599C0.565992 12.7893 0.166992 12.4004 0.166992 11.9199C0.166992 11.4382 0.565992 11.0481 1.05599 11.0481Z" fill="#424242"/>
</svg>
