<svg width="24" height="22" viewBox="0 0 24 22" fill="none" xmlns="http://www.w3.org/2000/svg">
<path d="M23.3245 10.1752L13.9912 0.841855C13.828 0.678693 13.6202 0.567573 13.3939 0.522549C13.1676 0.477524 12.933 0.500617 12.7198 0.588908C12.5067 0.677198 12.3245 0.82672 12.1963 1.01856C12.0681 1.21041 11.9997 1.43596 11.9997 1.66669V5.80243C8.81269 6.09742 5.85047 7.57103 3.69269 9.9349C1.53491 12.2988 0.336868 15.3827 0.333008 18.5834V20.3334C0.332989 20.5756 0.408405 20.8119 0.548786 21.0094C0.689166 21.2069 0.887547 21.3558 1.11639 21.4354C1.34523 21.515 1.59317 21.5213 1.8258 21.4536C2.05843 21.3859 2.2642 21.2474 2.41455 21.0574C3.55747 19.6982 4.95981 18.5803 6.53964 17.7692C8.11946 16.958 9.8451 16.4699 11.6157 16.3332C11.6738 16.3258 11.8197 16.3144 11.9997 16.303V20.3334C11.9997 20.5641 12.0681 20.7896 12.1963 20.9815C12.3245 21.1733 12.5067 21.3228 12.7198 21.4111C12.933 21.4994 13.1676 21.5225 13.3939 21.4775C13.6202 21.4325 13.828 21.3214 13.9912 21.1582L23.3245 11.8249C23.4329 11.7166 23.5188 11.588 23.5775 11.4464C23.6361 11.3049 23.6663 11.1532 23.6663 11C23.6663 10.8468 23.6361 10.6951 23.5775 10.5536C23.5188 10.4121 23.4329 10.2835 23.3245 10.1752ZM14.333 17.517V15.0834C14.333 14.9301 14.3029 14.7784 14.2443 14.6368C14.1857 14.4953 14.0997 14.3667 13.9914 14.2583C13.883 14.15 13.7544 14.064 13.6129 14.0054C13.4713 13.9468 13.3196 13.9166 13.1663 13.9167C12.869 13.9167 11.6545 13.9742 11.3446 14.0159C8.19992 14.3055 5.20659 15.5002 2.72673 17.4554C3.00805 14.8821 4.22872 12.5031 6.15498 10.7738C8.08125 9.04448 10.5777 8.08653 13.1663 8.08336C13.3196 8.08339 13.4713 8.05325 13.6129 7.99463C13.7544 7.93601 13.883 7.85008 13.9914 7.74174C14.0997 7.63339 14.1857 7.50476 14.2443 7.3632C14.3029 7.22163 14.333 7.06991 14.333 6.91669V4.48309L20.8499 11L14.333 17.517Z" fill="#424242"/>
</svg>
