<svg width="24" height="22" viewBox="0 0 24 22" fill="none" xmlns="http://www.w3.org/2000/svg">
<path d="M23.3255 10.1752L13.9922 0.841855C13.829 0.678693 13.6211 0.567573 13.3949 0.522549C13.1686 0.477524 12.934 0.500617 12.7208 0.588908C12.5077 0.677198 12.3255 0.82672 12.1973 1.01856C12.0691 1.21041 12.0006 1.43596 12.0007 1.66669V5.80243C8.81367 6.09742 5.85145 7.57103 3.69367 9.9349C1.53589 12.2988 0.337844 15.3827 0.333984 18.5834V20.3334C0.333966 20.5756 0.409382 20.8119 0.549762 21.0094C0.690143 21.2069 0.888523 21.3558 1.11736 21.4354C1.3462 21.515 1.59415 21.5213 1.82678 21.4536C2.05941 21.3859 2.26518 21.2474 2.41553 21.0574C3.55845 19.6982 4.96079 18.5803 6.54061 17.7692C8.12044 16.958 9.84607 16.4699 11.6167 16.3332C11.6748 16.3258 11.8206 16.3144 12.0007 16.303V20.3334C12.0006 20.5641 12.0691 20.7896 12.1973 20.9815C12.3255 21.1733 12.5077 21.3228 12.7208 21.4111C12.934 21.4994 13.1686 21.5225 13.3949 21.4775C13.6211 21.4325 13.829 21.3214 13.9922 21.1582L23.3255 11.8249C23.4338 11.7166 23.5198 11.588 23.5784 11.4464C23.6371 11.3049 23.6673 11.1532 23.6673 11C23.6673 10.8468 23.6371 10.6951 23.5784 10.5536C23.5198 10.4121 23.4338 10.2835 23.3255 10.1752ZM14.334 17.517V15.0834C14.334 14.9301 14.3039 14.7784 14.2453 14.6368C14.1866 14.4953 14.1007 14.3667 13.9924 14.2583C13.884 14.15 13.7554 14.064 13.6138 14.0054C13.4723 13.9468 13.3205 13.9166 13.1673 13.9167C12.87 13.9167 11.6554 13.9742 11.3455 14.0159C8.2009 14.3055 5.20757 15.5002 2.7277 17.4554C3.00902 14.8821 4.22969 12.5031 6.15596 10.7738C8.08223 9.04448 10.5787 8.08653 13.1673 8.08336C13.3205 8.08339 13.4723 8.05325 13.6138 7.99463C13.7554 7.93601 13.884 7.85008 13.9924 7.74174C14.1007 7.63339 14.1866 7.50476 14.2453 7.3632C14.3039 7.22163 14.334 7.06991 14.334 6.91669V4.48309L20.8509 11L14.334 17.517Z" fill="white"/>
</svg>
