<svg width="28" height="28" viewBox="0 0 28 28" fill="none" xmlns="http://www.w3.org/2000/svg">
<path fill-rule="evenodd" clip-rule="evenodd" d="M14.0007 11.0833C15.6117 11.0833 16.9173 12.3889 16.9173 13.9999C16.9173 15.6109 15.6117 16.9166 14.0007 16.9166C12.3896 16.9166 11.084 15.6109 11.084 13.9999C11.084 12.3889 12.3896 11.0833 14.0007 11.0833Z" stroke="white" stroke-width="1.5" stroke-linecap="round" stroke-linejoin="round"/>
<path fill-rule="evenodd" clip-rule="evenodd" d="M23.53 8.45858V8.45858C22.7325 7.06762 20.9671 6.59167 19.5873 7.3949C18.387 8.09211 16.8871 7.21974 16.8871 5.82416C16.8871 4.21885 15.5942 2.91663 14.0004 2.91663V2.91663C12.4066 2.91663 11.1137 4.21885 11.1137 5.82416C11.1137 7.21974 9.61371 8.09211 8.41464 7.3949C7.03366 6.59167 5.26824 7.06762 4.47077 8.45858C3.67444 9.84954 4.14697 11.6277 5.52796 12.4298C6.72703 13.1282 6.72703 14.8718 5.52796 15.5701C4.14697 16.3734 3.67444 18.1515 4.47077 19.5413C5.26824 20.9323 7.03366 21.4082 8.4135 20.6062H8.41464C9.61371 19.9078 11.1137 20.7802 11.1137 22.1758V22.1758C11.1137 23.7811 12.4066 25.0833 14.0004 25.0833V25.0833C15.5942 25.0833 16.8871 23.7811 16.8871 22.1758V22.1758C16.8871 20.7802 18.387 19.9078 19.5873 20.6062C20.9671 21.4082 22.7325 20.9323 23.53 19.5413C24.3275 18.1515 23.8538 16.3734 22.4739 15.5701H22.4728C21.2737 14.8718 21.2737 13.1282 22.4739 12.4298C23.8538 11.6277 24.3275 9.84954 23.53 8.45858Z" stroke="white" stroke-width="1.5" stroke-linecap="round" stroke-linejoin="round"/>
</svg>
