<svg width="28" height="28" viewBox="0 0 28 28" fill="none" xmlns="http://www.w3.org/2000/svg">
<path fill-rule="evenodd" clip-rule="evenodd" d="M13.9997 11.0833C15.6107 11.0833 16.9163 12.3889 16.9163 13.9999C16.9163 15.6109 15.6107 16.9166 13.9997 16.9166C12.3886 16.9166 11.083 15.6109 11.083 13.9999C11.083 12.3889 12.3886 11.0833 13.9997 11.0833Z" stroke="#212121" stroke-width="1.5" stroke-linecap="round" stroke-linejoin="round"/>
<path fill-rule="evenodd" clip-rule="evenodd" d="M23.529 8.45858V8.45858C22.7315 7.06762 20.9661 6.59167 19.5863 7.3949C18.3861 8.09211 16.8861 7.21974 16.8861 5.82416C16.8861 4.21885 15.5932 2.91663 13.9994 2.91663V2.91663C12.4056 2.91663 11.1127 4.21885 11.1127 5.82416C11.1127 7.21974 9.61274 8.09211 8.41367 7.3949C7.03268 6.59167 5.26726 7.06762 4.46979 8.45858C3.67346 9.84954 4.146 11.6277 5.52698 12.4298C6.72605 13.1282 6.72605 14.8718 5.52698 15.5701C4.146 16.3734 3.67346 18.1515 4.46979 19.5413C5.26726 20.9323 7.03268 21.4082 8.41252 20.6062H8.41367C9.61274 19.9078 11.1127 20.7802 11.1127 22.1758V22.1758C11.1127 23.7811 12.4056 25.0833 13.9994 25.0833V25.0833C15.5932 25.0833 16.8861 23.7811 16.8861 22.1758V22.1758C16.8861 20.7802 18.3861 19.9078 19.5863 20.6062C20.9661 21.4082 22.7315 20.9323 23.529 19.5413C24.3265 18.1515 23.8528 16.3734 22.473 15.5701H22.4718C21.2727 14.8718 21.2727 13.1282 22.473 12.4298C23.8528 11.6277 24.3265 9.84954 23.529 8.45858Z" stroke="#212121" stroke-width="1.5" stroke-linecap="round" stroke-linejoin="round"/>
</svg>
