<svg width="20" height="20" viewBox="0 0 20 20" fill="none" xmlns="http://www.w3.org/2000/svg">
<path fill-rule="evenodd" clip-rule="evenodd" d="M9.99935 7.91699C11.1501 7.91699 12.0827 8.84959 12.0827 10.0003C12.0827 11.1511 11.1501 12.0837 9.99935 12.0837C8.84862 12.0837 7.91602 11.1511 7.91602 10.0003C7.91602 8.84959 8.84862 7.91699 9.99935 7.91699Z" stroke="#FAFAFA" stroke-width="1.5" stroke-linecap="round" stroke-linejoin="round"/>
<path fill-rule="evenodd" clip-rule="evenodd" d="M16.806 6.04204V6.04204C16.2364 5.04849 14.9754 4.70853 13.9898 5.28227C13.1325 5.78027 12.0611 5.15715 12.0611 4.16031C12.0611 3.01366 11.1376 2.0835 9.99915 2.0835V2.0835C8.86073 2.0835 7.93723 3.01366 7.93723 4.16031C7.93723 5.15715 6.86582 5.78027 6.00934 5.28227C5.02293 4.70853 3.76191 5.04849 3.19229 6.04204C2.62348 7.03558 2.96101 8.3057 3.94743 8.87862C4.8039 9.37745 4.8039 10.6229 3.94743 11.1217C2.96101 11.6954 2.62348 12.9656 3.19229 13.9583C3.76191 14.9518 5.02293 15.2918 6.00853 14.7189H6.00934C6.86582 14.2201 7.93723 14.8432 7.93723 15.84V15.84C7.93723 16.9867 8.86073 17.9168 9.99915 17.9168V17.9168C11.1376 17.9168 12.0611 16.9867 12.0611 15.84V15.84C12.0611 14.8432 13.1325 14.2201 13.9898 14.7189C14.9754 15.2918 16.2364 14.9518 16.806 13.9583C17.3756 12.9656 17.0373 11.6954 16.0517 11.1217H16.0509C15.1944 10.6229 15.1944 9.37745 16.0517 8.87862C17.0373 8.3057 17.3756 7.03558 16.806 6.04204Z" stroke="#FAFAFA" stroke-width="1.5" stroke-linecap="round" stroke-linejoin="round"/>
</svg>
