<svg width="20" height="20" viewBox="0 0 20 20" fill="none" xmlns="http://www.w3.org/2000/svg">
<path fill-rule="evenodd" clip-rule="evenodd" d="M10.0003 7.91699C11.1511 7.91699 12.0837 8.84959 12.0837 10.0003C12.0837 11.1511 11.1511 12.0837 10.0003 12.0837C8.84959 12.0837 7.91699 11.1511 7.91699 10.0003C7.91699 8.84959 8.84959 7.91699 10.0003 7.91699Z" stroke="#212121" stroke-width="1.5" stroke-linecap="round" stroke-linejoin="round"/>
<path fill-rule="evenodd" clip-rule="evenodd" d="M16.807 6.04204V6.04204C16.2374 5.04849 14.9764 4.70853 13.9908 5.28227C13.1335 5.78027 12.062 5.15715 12.062 4.16031C12.062 3.01366 11.1386 2.0835 10.0001 2.0835V2.0835C8.8617 2.0835 7.93821 3.01366 7.93821 4.16031C7.93821 5.15715 6.8668 5.78027 6.01032 5.28227C5.0239 4.70853 3.76289 5.04849 3.19326 6.04204C2.62446 7.03558 2.96198 8.3057 3.9484 8.87862C4.80488 9.37745 4.80488 10.6229 3.9484 11.1217C2.96198 11.6954 2.62446 12.9656 3.19326 13.9583C3.76289 14.9518 5.0239 15.2918 6.0095 14.7189H6.01032C6.8668 14.2201 7.93821 14.8432 7.93821 15.84V15.84C7.93821 16.9867 8.8617 17.9168 10.0001 17.9168V17.9168C11.1386 17.9168 12.062 16.9867 12.062 15.84V15.84C12.062 14.8432 13.1335 14.2201 13.9908 14.7189C14.9764 15.2918 16.2374 14.9518 16.807 13.9583C17.3766 12.9656 17.0383 11.6954 16.0527 11.1217H16.0519C15.1954 10.6229 15.1954 9.37745 16.0527 8.87862C17.0383 8.3057 17.3766 7.03558 16.807 6.04204Z" stroke="#212121" stroke-width="1.5" stroke-linecap="round" stroke-linejoin="round"/>
</svg>
