<svg width="28" height="28" viewBox="0 0 28 28" fill="none" xmlns="http://www.w3.org/2000/svg">
<path d="M21.0004 16.3336C20.3111 16.3382 19.6314 16.4954 19.0101 16.7939C18.3888 17.0925 17.8413 17.525 17.4071 18.0603L11.4571 15.3186C11.7368 14.462 11.7368 13.5386 11.4571 12.682L17.4071 9.9403C18.109 10.7873 19.0875 11.3591 20.1699 11.5548C21.2524 11.7505 22.3692 11.5576 23.3232 11.01C24.2772 10.4625 25.0072 9.59552 25.3842 8.56216C25.7613 7.52881 25.7612 6.39548 25.3839 5.36219C25.0067 4.3289 24.2766 3.46208 23.3225 2.91471C22.3683 2.36734 21.2515 2.17461 20.1691 2.37052C19.0867 2.56644 18.1083 3.13842 17.4065 3.98551C16.7048 4.83259 16.3249 5.90034 16.3338 7.0003C16.3373 7.27823 16.3646 7.55536 16.4154 7.82863L10.2554 10.6636C9.59868 10.0215 8.76704 9.5874 7.86469 9.4158C6.96235 9.24419 6.02943 9.34269 5.18281 9.69895C4.3362 10.0552 3.61354 10.6534 3.10539 11.4185C2.59723 12.1837 2.32617 13.0818 2.32617 14.0003C2.32617 14.9188 2.59723 15.8169 3.10539 16.5821C3.61354 17.3472 4.3362 17.9454 5.18281 18.3016C6.02943 18.6579 6.96235 18.7564 7.86469 18.5848C8.76704 18.4132 9.59868 17.9791 10.2554 17.337L16.4154 20.172C16.3646 20.4452 16.3373 20.7224 16.3338 21.0003C16.3338 21.9233 16.6074 22.8255 17.1202 23.593C17.633 24.3604 18.3618 24.9585 19.2146 25.3117C20.0673 25.6649 21.0056 25.7574 21.9108 25.5773C22.8161 25.3972 23.6476 24.9528 24.3003 24.3001C24.9529 23.6475 25.3974 22.816 25.5774 21.9107C25.7575 21.0055 25.6651 20.0672 25.3119 19.2144C24.9587 18.3617 24.3605 17.6329 23.5931 17.1201C22.8257 16.6073 21.9234 16.3336 21.0004 16.3336ZM21.0004 4.66696C21.4619 4.66696 21.913 4.80381 22.2968 5.0602C22.6805 5.31659 22.9795 5.68101 23.1561 6.10737C23.3327 6.53373 23.379 7.00288 23.2889 7.45551C23.1989 7.90813 22.9767 8.32389 22.6503 8.65021C22.324 8.97653 21.9083 9.19876 21.4556 9.2888C21.003 9.37883 20.5339 9.33262 20.1075 9.15602C19.6811 8.97941 19.3167 8.68034 19.0603 8.29663C18.8039 7.91291 18.6671 7.46179 18.6671 7.0003C18.6671 6.38146 18.9129 5.78797 19.3505 5.35038C19.7881 4.9128 20.3816 4.66696 21.0004 4.66696V4.66696ZM7.00042 16.3336C6.53893 16.3336 6.0878 16.1968 5.70409 15.9404C5.32037 15.684 5.0213 15.3196 4.8447 14.8932C4.6681 14.4669 4.62189 13.9977 4.71192 13.5451C4.80195 13.0925 5.02418 12.6767 5.3505 12.3504C5.67683 12.0241 6.09259 11.8018 6.54521 11.7118C6.99783 11.6218 7.46699 11.668 7.89335 11.8446C8.31971 12.0212 8.68413 12.3203 8.94052 12.704C9.19691 13.0877 9.33375 13.5388 9.33375 14.0003C9.33375 14.6191 9.08792 15.2126 8.65034 15.6502C8.21275 16.0878 7.61926 16.3336 7.00042 16.3336ZM21.0004 23.3336C20.5389 23.3336 20.0878 23.1968 19.7041 22.9404C19.3204 22.684 19.0213 22.3196 18.8447 21.8932C18.6681 21.4669 18.6219 20.9977 18.7119 20.5451C18.802 20.0925 19.0242 19.6767 19.3505 19.3504C19.6768 19.0241 20.0926 18.8018 20.5452 18.7118C20.9978 18.6218 21.467 18.668 21.8934 18.8446C22.3197 19.0212 22.6841 19.3202 22.9405 19.704C23.1969 20.0877 23.3338 20.5388 23.3338 21.0003C23.3338 21.6191 23.0879 22.2126 22.6503 22.6502C22.2128 23.0878 21.6193 23.3336 21.0004 23.3336Z" fill="white"/>
</svg>
