<svg width="24" height="24" viewBox="0 0 24 24" fill="none" xmlns="http://www.w3.org/2000/svg">
<path d="M19.0004 14.3334C18.3111 14.3379 17.6314 14.4951 17.0101 14.7937C16.3888 15.0922 15.8413 15.5247 15.4071 16.0601L9.45709 13.3184C9.73684 12.4618 9.73684 11.5383 9.45709 10.6817L15.4071 7.94005C16.109 8.78701 17.0875 9.35881 18.1699 9.55453C19.2524 9.75025 20.3692 9.55732 21.3232 9.00977C22.2772 8.46223 23.0072 7.59527 23.3842 6.56192C23.7613 5.52856 23.7612 4.39523 23.3839 3.36194C23.0067 2.32866 22.2766 1.46184 21.3225 0.914465C20.3683 0.367094 19.2515 0.174361 18.1691 0.37028C17.0867 0.566198 16.1083 1.13817 15.4065 1.98526C14.7048 2.83235 14.3249 3.90009 14.3338 5.00005C14.3373 5.27799 14.3646 5.55511 14.4154 5.82839L8.25542 8.66339C7.59868 8.02123 6.76704 7.58715 5.86469 7.41555C4.96235 7.24395 4.02943 7.34245 3.18281 7.69871C2.3362 8.05497 1.61354 8.65314 1.10539 9.41829C0.59723 10.1834 0.326172 11.0815 0.326172 12.0001C0.326172 12.9186 0.59723 13.8167 1.10539 14.5818C1.61354 15.347 2.3362 15.9451 3.18281 16.3014C4.02943 16.6577 4.96235 16.7562 5.86469 16.5846C6.76704 16.4129 7.59868 15.9789 8.25542 15.3367L14.4154 18.1717C14.3646 18.445 14.3373 18.7221 14.3338 19.0001C14.3338 19.923 14.6074 20.8253 15.1202 21.5927C15.633 22.3601 16.3618 22.9583 17.2146 23.3115C18.0673 23.6647 19.0056 23.7571 19.9108 23.577C20.8161 23.397 21.6476 22.9525 22.3003 22.2999C22.9529 21.6472 23.3974 20.8157 23.5774 19.9105C23.7575 19.0052 23.6651 18.0669 23.3119 17.2142C22.9587 16.3615 22.3605 15.6326 21.5931 15.1199C20.8257 14.6071 19.9234 14.3334 19.0004 14.3334ZM19.0004 2.66672C19.4619 2.66672 19.913 2.80357 20.2968 3.05996C20.6805 3.31635 20.9795 3.68076 21.1561 4.10712C21.3327 4.53349 21.379 5.00264 21.2889 5.45526C21.1989 5.90788 20.9767 6.32365 20.6503 6.64997C20.324 6.97629 19.9083 7.19852 19.4556 7.28855C19.003 7.37858 18.5339 7.33238 18.1075 7.15577C17.6811 6.97917 17.3167 6.6801 17.0603 6.29638C16.8039 5.91267 16.6671 5.46154 16.6671 5.00005C16.6671 4.38121 16.9129 3.78772 17.3505 3.35014C17.7881 2.91255 18.3816 2.66672 19.0004 2.66672V2.66672ZM5.00042 14.3334C4.53893 14.3334 4.0878 14.1965 3.70409 13.9401C3.32037 13.6838 3.0213 13.3193 2.8447 12.893C2.6681 12.4666 2.62189 11.9975 2.71192 11.5448C2.80195 11.0922 3.02418 10.6765 3.3505 10.3501C3.67683 10.0238 4.09259 9.80158 4.54521 9.71155C4.99783 9.62152 5.46699 9.66773 5.89335 9.84433C6.31971 10.0209 6.68413 10.32 6.94052 10.7037C7.19691 11.0874 7.33375 11.5386 7.33375 12.0001C7.33375 12.6189 7.08792 13.2124 6.65034 13.65C6.21275 14.0876 5.61926 14.3334 5.00042 14.3334ZM19.0004 21.3334C18.5389 21.3334 18.0878 21.1965 17.7041 20.9401C17.3204 20.6838 17.0213 20.3193 16.8447 19.893C16.6681 19.4666 16.6219 18.9975 16.7119 18.5448C16.802 18.0922 17.0242 17.6765 17.3505 17.3501C17.6768 17.0238 18.0926 16.8016 18.5452 16.7116C18.9978 16.6215 19.467 16.6677 19.8934 16.8443C20.3197 17.0209 20.6841 17.32 20.9405 17.7037C21.1969 18.0874 21.3338 18.5386 21.3338 19.0001C21.3338 19.6189 21.0879 20.2124 20.6503 20.65C20.2128 21.0876 19.6193 21.3334 19.0004 21.3334Z" fill="#424242"/>
</svg>
