<svg width="28" height="28" viewBox="0 0 28 28" fill="none" xmlns="http://www.w3.org/2000/svg">
<path d="M25.3255 13.1751L15.9922 3.84173C15.829 3.67857 15.6211 3.56745 15.3949 3.52243C15.1686 3.4774 14.934 3.5005 14.7208 3.58879C14.5077 3.67708 14.3255 3.8266 14.1973 4.01844C14.0691 4.21029 14.0006 4.43584 14.0007 4.66657V8.80231C10.8137 9.0973 7.85145 10.5709 5.69367 12.9348C3.53589 15.2986 2.33784 18.3826 2.33398 21.5832V23.3332C2.33397 23.5755 2.40938 23.8118 2.54976 24.0093C2.69014 24.2068 2.88852 24.3556 3.11736 24.4352C3.3462 24.5148 3.59415 24.5212 3.82678 24.4535C4.05941 24.3857 4.26518 24.2473 4.41553 24.0573C5.55845 22.698 6.96079 21.5802 8.54061 20.7691C10.1204 19.9579 11.8461 19.4697 13.6167 19.3331C13.6748 19.3257 13.8206 19.3143 14.0007 19.3029V23.3332C14.0006 23.564 14.0691 23.7895 14.1973 23.9814C14.3255 24.1732 14.5077 24.3227 14.7208 24.411C14.934 24.4993 15.1686 24.5224 15.3949 24.4774C15.6211 24.4323 15.829 24.3212 15.9922 24.1581L25.3255 14.8247C25.4338 14.7164 25.5198 14.5878 25.5784 14.4463C25.6371 14.3048 25.6673 14.1531 25.6673 13.9999C25.6673 13.8467 25.6371 13.695 25.5784 13.5535C25.5198 13.412 25.4338 13.2834 25.3255 13.1751ZM16.334 20.5168V18.0832C16.334 17.93 16.3039 17.7783 16.2453 17.6367C16.1866 17.4952 16.1007 17.3665 15.9924 17.2582C15.884 17.1498 15.7554 17.0639 15.6138 17.0053C15.4723 16.9467 15.3205 16.9165 15.1673 16.9166C14.87 16.9166 13.6554 16.9741 13.3455 17.0157C10.2009 17.3054 7.20757 18.5001 4.7277 20.4553C5.00902 17.882 6.22969 15.5029 8.15596 13.7736C10.0822 12.0444 12.5787 11.0864 15.1673 11.0832C15.3205 11.0833 15.4723 11.0531 15.6138 10.9945C15.7554 10.9359 15.884 10.85 15.9924 10.7416C16.1007 10.6333 16.1866 10.5046 16.2453 10.3631C16.3039 10.2215 16.334 10.0698 16.334 9.91657V7.48297L22.8509 13.9999L16.334 20.5168Z" fill="white"/>
</svg>
