<svg width="24" height="18" viewBox="0 0 24 18" fill="none" xmlns="http://www.w3.org/2000/svg">
<path d="M20.6748 1.73682C23.584 6.07682 23.5925 11.8041 20.6748 16.1536" stroke="#212121" stroke-width="1.5" stroke-linecap="round" stroke-linejoin="round"/>
<path d="M17.8203 4.58667C19.3158 7.29652 19.3158 10.6035 17.8203 13.3038" stroke="#212121" stroke-width="1.5" stroke-linecap="round" stroke-linejoin="round"/>
<path fill-rule="evenodd" clip-rule="evenodd" d="M1.12919 8.94503C1.12601 10.3991 1.12919 12.1046 2.3298 13.1238C3.53146 14.1441 4.48389 13.7231 6.03767 14.2343C7.59252 14.7465 9.76995 17.905 12.1754 16.4785C13.4757 15.5547 14.0887 13.8111 14.0887 8.94503C14.0887 4.07897 13.5033 2.35442 12.1754 1.41155C9.76995 -0.0139088 7.59252 3.14458 6.03767 3.65579C4.48389 4.16806 3.53146 3.747 2.3298 4.76624C1.12919 5.78549 1.12601 7.49094 1.12919 8.94503Z" stroke="#212121" stroke-width="1.5" stroke-linecap="round" stroke-linejoin="round"/>
</svg>
