<svg width="15" height="14" viewBox="0 0 15 14" fill="none" xmlns="http://www.w3.org/2000/svg">
<path d="M12.5469 4.1958C13.5913 6.08839 13.5913 8.39802 12.5469 10.2839" stroke="#FAFAFA" stroke-width="1.5" stroke-linecap="round" stroke-linejoin="round"/>
<path fill-rule="evenodd" clip-rule="evenodd" d="M0.88897 7.23953C0.886007 8.25509 0.88897 9.4462 1.72749 10.1581C2.56601 10.8706 3.23193 10.5766 4.31712 10.9336C5.40304 11.2914 6.92378 13.4973 8.60378 12.501C9.51193 11.8558 9.94008 10.6381 9.94008 7.23953C9.94008 3.84102 9.53119 2.63657 8.60378 1.97805C6.92378 0.982497 5.40304 3.18842 4.31712 3.54546C3.23193 3.90324 2.56601 3.60916 1.72749 4.32101C0.88897 5.03287 0.886007 6.22398 0.88897 7.23953Z" stroke="#FAFAFA" stroke-width="1.5" stroke-linecap="round" stroke-linejoin="round"/>
</svg>
