<svg width="26" height="22" viewBox="0 0 26 22" fill="none" xmlns="http://www.w3.org/2000/svg">
<path fill-rule="evenodd" clip-rule="evenodd" d="M14.5826 4.52565C14.5239 3.95826 14.4627 3.36957 14.3123 2.78213C13.9024 1.37678 12.7672 0.500011 11.5499 0.500011C10.8709 0.497506 10.0121 0.915852 9.52524 1.33921L5.48937 4.7198H3.37662C1.82172 4.7198 0.571445 5.91847 0.335336 7.64822C0.134704 9.30908 0.0857694 12.4442 0.335336 14.2716C0.551871 16.0991 1.74587 17.2802 3.37662 17.2802H5.48937L9.60354 20.7109C10.0256 21.0779 10.7706 21.4987 11.4557 21.4987C11.4998 21.5 11.5389 21.5 11.578 21.5C12.8185 21.5 13.911 20.5906 14.3208 19.1891C14.4752 18.5965 14.5294 18.0411 14.5817 17.5044L14.5826 17.4944L14.6377 16.9596C14.8481 15.2248 14.8481 6.76393 14.6377 5.0417L14.5826 4.52565ZM19.307 4.57701C18.9706 4.08101 18.3039 3.95701 17.8157 4.30145C17.3325 4.6484 17.2126 5.33229 17.549 5.82704C18.4849 7.20608 19 9.04229 19 11C19 12.9565 18.4849 14.7939 17.549 16.173C17.2126 16.6677 17.3325 17.3516 17.817 17.6985C17.998 17.8263 18.2097 17.8939 18.4274 17.8939C18.7785 17.8939 19.1064 17.7173 19.307 17.423C20.4888 15.682 21.1408 13.4011 21.1408 11C21.1408 8.59889 20.4888 6.31803 19.307 4.57701ZM21.5044 0.757909C21.9913 0.41221 22.6605 0.538716 22.9945 1.03347C24.8246 3.72767 25.8327 7.26858 25.8327 10.9999C25.8327 14.7337 24.8246 18.2733 22.9945 20.9675C22.7951 21.2619 22.466 21.4385 22.1149 21.4385C21.8971 21.4385 21.6867 21.3709 21.5056 21.2431C21.0212 20.8961 20.9013 20.2135 21.2365 19.7175C22.8195 17.3853 23.6918 14.289 23.6918 10.9999C23.6918 7.71198 22.8195 4.61571 21.2365 2.2835C20.9013 1.78874 21.0212 1.10486 21.5044 0.757909Z" fill="white"/>
</svg>
