<svg width="14" height="14" viewBox="0 0 14 14" fill="none" xmlns="http://www.w3.org/2000/svg">
<path d="M10.9466 8.54675C10.7739 8.71408 10.6946 8.95608 10.7339 9.19341L11.3266 12.4734C11.3766 12.7514 11.2592 13.0327 11.0266 13.1934C10.7986 13.3601 10.4952 13.3801 10.2466 13.2467L7.2939 11.7067C7.19124 11.6521 7.07723 11.6227 6.96057 11.6194H6.7799C6.71724 11.6287 6.6559 11.6487 6.5999 11.6794L3.64657 13.2267C3.50057 13.3001 3.33524 13.3261 3.17323 13.3001C2.77857 13.2254 2.51523 12.8494 2.5799 12.4527L3.17323 9.17275C3.21257 8.93341 3.13323 8.69008 2.96057 8.52008L0.553235 6.18675C0.351902 5.99141 0.281902 5.69808 0.373902 5.43341C0.463235 5.16941 0.691235 4.97675 0.966568 4.93341L4.2799 4.45275C4.5319 4.42675 4.75323 4.27341 4.86657 4.04675L6.32657 1.05341C6.36123 0.986748 6.4059 0.925415 6.4599 0.873415L6.5199 0.826748C6.55123 0.792081 6.58723 0.763415 6.62723 0.740081L6.6999 0.713415L6.81324 0.666748H7.0939C7.34457 0.692748 7.56524 0.842748 7.68057 1.06675L9.1599 4.04675C9.26657 4.26475 9.4739 4.41608 9.71324 4.45275L13.0266 4.93341C13.3066 4.97341 13.5406 5.16675 13.6332 5.43341C13.7206 5.70075 13.6452 5.99408 13.4399 6.18675L10.9466 8.54675Z" fill="white"/>
</svg>
