<svg width="28" height="28" viewBox="0 0 28 28" fill="none" xmlns="http://www.w3.org/2000/svg">
<path d="M20.9041 16.707C20.6019 16.9998 20.4631 17.4233 20.5319 17.8387L21.5691 23.5787C21.6566 24.0652 21.4512 24.5575 21.0441 24.8387C20.6451 25.1303 20.1142 25.1653 19.6791 24.932L14.5119 22.237C14.3322 22.1413 14.1327 22.09 13.9286 22.0842H13.6124C13.5027 22.1005 13.3954 22.1355 13.2974 22.1892L8.12905 24.897C7.87355 25.0253 7.58422 25.0708 7.30072 25.0253C6.61005 24.8947 6.14922 24.2367 6.26239 23.5425L7.30072 17.8025C7.36955 17.3837 7.23072 16.9578 6.92855 16.6603L2.71572 12.577C2.36339 12.2352 2.24089 11.7218 2.40189 11.2587C2.55822 10.7967 2.95722 10.4595 3.43905 10.3837L9.23739 9.54249C9.67839 9.49699 10.0657 9.22866 10.2641 8.83199L12.8191 3.59366C12.8797 3.47699 12.9579 3.36966 13.0524 3.27866L13.1574 3.19699C13.2122 3.13633 13.2752 3.08616 13.3452 3.04533L13.4724 2.99866L13.6707 2.91699H14.1619C14.6006 2.96249 14.9867 3.22499 15.1886 3.61699L17.7774 8.83199C17.9641 9.21349 18.3269 9.47833 18.7457 9.54249L24.5441 10.3837C25.0341 10.4537 25.4436 10.792 25.6057 11.2587C25.7586 11.7265 25.6267 12.2398 25.2674 12.577L20.9041 16.707Z" fill="white"/>
</svg>
