<svg width="18" height="18" viewBox="0 0 18 18" fill="none" xmlns="http://www.w3.org/2000/svg">
<path fill-rule="evenodd" clip-rule="evenodd" d="M8.99999 1.5C7.3032 1.5 7.14278 4.45544 6.13259 5.49965C5.1224 6.54385 1.98183 5.34993 1.54549 7.20336C1.11006 9.05773 3.93529 9.68691 4.28364 11.2779C4.63381 12.8688 2.90769 15.1041 4.38264 16.2165C5.85759 17.328 7.44529 14.8123 8.99999 14.8123C10.5547 14.8123 12.1424 17.328 13.6173 16.2165C15.0923 15.1041 13.3671 12.8688 13.7164 11.2779C14.0656 9.68691 16.8899 9.05773 16.4545 7.20336C16.0191 5.34993 12.8776 6.54385 11.8683 5.49965C10.8581 4.45544 10.6968 1.5 8.99999 1.5Z" stroke="#FAFAFA" stroke-width="1.5" stroke-linecap="round" stroke-linejoin="round"/>
</svg>
