<svg width="28" height="28" viewBox="0 0 28 28" fill="none" xmlns="http://www.w3.org/2000/svg">
<path fill-rule="evenodd" clip-rule="evenodd" d="M14 3.5C11.6245 3.5 11.3999 7.63761 9.98563 9.0995C8.57137 10.5614 4.17457 8.8899 3.56368 11.4847C2.95409 14.0808 6.90941 14.9617 7.39709 17.189C7.88733 19.4163 5.47076 22.5457 7.53569 24.1031C9.60062 25.6592 11.8234 22.1372 14 22.1372C16.1766 22.1372 18.3994 25.6592 20.4643 24.1031C22.5292 22.5457 20.1139 19.4163 20.6029 17.189C21.0919 14.9617 25.0459 14.0808 24.4363 11.4847C23.8267 8.8899 19.4286 10.5614 18.0156 9.0995C16.6014 7.63761 16.3755 3.5 14 3.5Z" stroke="white" stroke-width="1.5" stroke-linecap="round" stroke-linejoin="round"/>
</svg>
