<svg width="24" height="18" viewBox="0 0 24 18" fill="none" xmlns="http://www.w3.org/2000/svg">
<path d="M8.49967 7.83325H1.49967C1.19026 7.83325 0.893509 7.95617 0.674717 8.17496C0.455924 8.39375 0.333008 8.6905 0.333008 8.99992C0.333008 9.30934 0.455924 9.60608 0.674717 9.82488C0.893509 10.0437 1.19026 10.1666 1.49967 10.1666H3.83301V15.9999C3.83301 16.3093 3.95592 16.6061 4.17472 16.8249C4.39351 17.0437 4.69026 17.1666 4.99967 17.1666C5.30909 17.1666 5.60584 17.0437 5.82463 16.8249C6.04342 16.6061 6.16634 16.3093 6.16634 15.9999V10.1666H8.49967C8.80909 10.1666 9.10584 10.0437 9.32463 9.82488C9.54342 9.60608 9.66634 9.30934 9.66634 8.99992C9.66634 8.6905 9.54342 8.39375 9.32463 8.17496C9.10584 7.95617 8.80909 7.83325 8.49967 7.83325ZM22.4997 0.833252H8.49967C8.19025 0.833252 7.89351 0.956168 7.67472 1.17496C7.45592 1.39375 7.33301 1.6905 7.33301 1.99992C7.33301 2.30934 7.45592 2.60608 7.67472 2.82488C7.89351 3.04367 8.19025 3.16659 8.49967 3.16659H14.333V15.9999C14.333 16.3093 14.4559 16.6061 14.6747 16.8249C14.8935 17.0437 15.1903 17.1666 15.4997 17.1666C15.8091 17.1666 16.1058 17.0437 16.3246 16.8249C16.5434 16.6061 16.6663 16.3093 16.6663 15.9999V3.16659H22.4997C22.8091 3.16659 23.1058 3.04367 23.3246 2.82488C23.5434 2.60608 23.6663 2.30934 23.6663 1.99992C23.6663 1.6905 23.5434 1.39375 23.3246 1.17496C23.1058 0.956168 22.8091 0.833252 22.4997 0.833252Z" fill="white"/>
</svg>
