<svg width="28" height="28" viewBox="0 0 28 28" fill="none" xmlns="http://www.w3.org/2000/svg">
<path fill-rule="evenodd" clip-rule="evenodd" d="M11.1518 25.0321C6.86784 25.0321 3.20801 24.3846 3.20801 21.79C3.20801 19.1953 6.84451 16.8573 11.1518 16.8573C15.4358 16.8573 19.0945 19.1731 19.0945 21.7666C19.0945 24.3601 15.4592 25.0321 11.1518 25.0321Z" stroke="#212121" stroke-width="1.5" stroke-linecap="round" stroke-linejoin="round"/>
<path fill-rule="evenodd" clip-rule="evenodd" d="M11.1519 13.157C13.9636 13.157 16.2432 10.8774 16.2432 8.0657C16.2432 5.25403 13.9636 2.97437 11.1519 2.97437C8.34025 2.97437 6.06058 5.25403 6.06058 8.0657C6.05008 10.868 8.31458 13.1477 11.1157 13.157H11.1519Z" stroke="#212121" stroke-width="1.5" stroke-linecap="round" stroke-linejoin="round"/>
<path d="M19.602 11.7586C21.2388 11.3211 22.4451 9.82891 22.4451 8.05324C22.4463 6.20058 21.1315 4.65358 19.3838 4.29541" stroke="#212121" stroke-width="1.5" stroke-linecap="round" stroke-linejoin="round"/>
<path d="M20.3711 15.9291C22.6904 15.9291 24.6714 17.5017 24.6714 18.9052C24.6714 19.7324 23.9889 20.5817 22.9506 20.8256" stroke="#212121" stroke-width="1.5" stroke-linecap="round" stroke-linejoin="round"/>
</svg>
