<svg width="28" height="28" viewBox="0 0 28 28" fill="none" xmlns="http://www.w3.org/2000/svg">
<path fill-rule="evenodd" clip-rule="evenodd" d="M11.1509 25.0321C6.86686 25.0321 3.20703 24.3846 3.20703 21.79C3.20703 19.1953 6.84353 16.8573 11.1509 16.8573C15.4349 16.8573 19.0935 19.1731 19.0935 21.7666C19.0935 24.3601 15.4582 25.0321 11.1509 25.0321Z" stroke="white" stroke-width="1.5" stroke-linecap="round" stroke-linejoin="round"/>
<path fill-rule="evenodd" clip-rule="evenodd" d="M11.15 13.157C13.9616 13.157 16.2413 10.8774 16.2413 8.0657C16.2413 5.25403 13.9616 2.97437 11.15 2.97437C8.3383 2.97437 6.05863 5.25403 6.05863 8.0657C6.04813 10.868 8.31263 13.1477 11.1138 13.157H11.15Z" stroke="white" stroke-width="1.5" stroke-linecap="round" stroke-linejoin="round"/>
<path d="M19.601 11.7586C21.2378 11.3211 22.4441 9.82891 22.4441 8.05324C22.4453 6.20058 21.1305 4.65358 19.3828 4.29541" stroke="white" stroke-width="1.5" stroke-linecap="round" stroke-linejoin="round"/>
<path d="M20.3711 15.9291C22.6904 15.9291 24.6714 17.5017 24.6714 18.9052C24.6714 19.7324 23.9889 20.5817 22.9506 20.8256" stroke="white" stroke-width="1.5" stroke-linecap="round" stroke-linejoin="round"/>
</svg>
