<svg width="28" height="28" viewBox="0 0 28 28" fill="none" xmlns="http://www.w3.org/2000/svg">
<path fill-rule="evenodd" clip-rule="evenodd" d="M9.87647 6.10895C9.61623 6.46044 9.64612 6.96182 9.97491 7.28C10.3249 7.63 10.8966 7.63 11.2466 7.28L13.1016 5.41333V10.2433H14.8982V5.41333L16.7532 7.28L16.8539 7.36678C17.2053 7.62711 17.7067 7.59818 18.0249 7.28C18.1999 7.105 18.2932 6.87167 18.2932 6.63833C18.2932 6.41667 18.1999 6.18333 18.0249 6.00833L14.6299 2.60167L14.5241 2.50656C14.3732 2.39307 14.1866 2.33333 13.9999 2.33333C13.7549 2.33333 13.5332 2.42667 13.3582 2.60167L9.96324 6.00833L9.87647 6.10895ZM7.26936 10.2493C4.5239 10.379 2.33301 12.6885 2.33301 15.502V21.2947L2.33865 21.5426C2.46612 24.3366 4.73667 26.5769 7.52467 26.5769H20.4863L20.73 26.5712C23.4754 26.4415 25.6663 24.1316 25.6663 21.3066V15.5258L25.6607 15.2769C25.5326 12.4727 23.2513 10.2436 20.4747 10.2436H14.898V17.3657L14.8897 17.4909C14.8294 17.9405 14.4488 18.2797 13.9997 18.2797C13.498 18.2797 13.1013 17.8761 13.1013 17.3657V10.2436H7.51301L7.26936 10.2493Z" fill="white"/>
</svg>
