<svg width="18" height="18" viewBox="0 0 18 18" fill="none" xmlns="http://www.w3.org/2000/svg">
<path fill-rule="evenodd" clip-rule="evenodd" d="M7.26833 17.1735C4.09 17.1735 1.375 16.6926 1.375 14.7676C1.375 12.8426 4.0725 11.0918 7.26833 11.0918C10.4467 11.0918 13.1617 12.826 13.1617 14.7501C13.1617 16.6743 10.4642 17.1735 7.26833 17.1735Z" stroke="#FAFAFA" stroke-width="1.5" stroke-linecap="round" stroke-linejoin="round"/>
<path fill-rule="evenodd" clip-rule="evenodd" d="M7.26776 8.3465C9.35359 8.3465 11.0453 6.65484 11.0453 4.569C11.0453 2.48234 9.35359 0.791504 7.26776 0.791504C5.18193 0.791504 3.49026 2.48234 3.49026 4.569C3.48276 6.64734 5.16276 8.339 7.24109 8.3465H7.26776Z" stroke="#FAFAFA" stroke-width="1.5" stroke-linecap="round" stroke-linejoin="round"/>
<path d="M14.9421 5.77393V9.11559" stroke="#FAFAFA" stroke-width="1.5" stroke-linecap="round" stroke-linejoin="round"/>
<path d="M16.6486 7.44499H13.2402" stroke="#FAFAFA" stroke-width="1.5" stroke-linecap="round" stroke-linejoin="round"/>
</svg>
