<svg width="18" height="18" viewBox="0 0 18 18" fill="none" xmlns="http://www.w3.org/2000/svg">
<path fill-rule="evenodd" clip-rule="evenodd" d="M7.26833 17.1735C4.09 17.1735 1.375 16.6926 1.375 14.7676C1.375 12.8426 4.0725 11.0918 7.26833 11.0918C10.4467 11.0918 13.1617 12.826 13.1617 14.7501C13.1617 16.6743 10.4642 17.1735 7.26833 17.1735Z" stroke="#212121" stroke-width="1.5" stroke-linecap="round" stroke-linejoin="round"/>
<path fill-rule="evenodd" clip-rule="evenodd" d="M7.26874 8.3465C9.35457 8.3465 11.0462 6.65484 11.0462 4.569C11.0462 2.48234 9.35457 0.791504 7.26874 0.791504C5.1829 0.791504 3.49124 2.48234 3.49124 4.569C3.48374 6.64734 5.16374 8.339 7.24207 8.3465H7.26874Z" stroke="#212121" stroke-width="1.5" stroke-linecap="round" stroke-linejoin="round"/>
<path d="M14.9421 5.77393V9.11559" stroke="#212121" stroke-width="1.5" stroke-linecap="round" stroke-linejoin="round"/>
<path d="M16.6476 7.44499H13.2393" stroke="#212121" stroke-width="1.5" stroke-linecap="round" stroke-linejoin="round"/>
</svg>
