<svg width="24" height="18" viewBox="0 0 24 18" fill="none" xmlns="http://www.w3.org/2000/svg">
<path fill-rule="evenodd" clip-rule="evenodd" d="M5.13156 0.25H11.889C14.7147 0.25 16.6875 2.19721 16.6875 4.98773V13.0123C16.6875 15.8028 14.7147 17.75 11.889 17.75H5.13156C2.30586 17.75 0.333008 15.8028 0.333008 13.0123V4.98773C0.333008 2.19721 2.30586 0.25 5.13156 0.25ZM21.284 3.02548C21.7962 2.76491 22.397 2.79215 22.8858 3.1001C23.3747 3.40687 23.6663 3.93986 23.6663 4.52261V13.4781C23.6663 14.062 23.3747 14.5938 22.8858 14.9006C22.6187 15.0676 22.32 15.1529 22.019 15.1529C21.7682 15.1529 21.5173 15.0937 21.2828 14.974L19.555 14.1023C18.9156 13.7778 18.519 13.1263 18.519 12.4026V5.59689C18.519 4.87201 18.9156 4.22058 19.555 3.89841L21.284 3.02548Z" fill="#246BFD"/>
</svg>
