<svg width="24" height="18" viewBox="0 0 24 18" fill="none" xmlns="http://www.w3.org/2000/svg">
<path fill-rule="evenodd" clip-rule="evenodd" d="M5.13253 0.25H11.8899C14.7156 0.25 16.6885 2.19721 16.6885 4.98773V13.0123C16.6885 15.8028 14.7156 17.75 11.8899 17.75H5.13253C2.30684 17.75 0.333984 15.8028 0.333984 13.0123V4.98773C0.333984 2.19721 2.30684 0.25 5.13253 0.25ZM21.285 3.02548C21.7971 2.76491 22.398 2.79215 22.8868 3.1001C23.3756 3.40687 23.6673 3.93986 23.6673 4.52261V13.4781C23.6673 14.062 23.3756 14.5938 22.8868 14.9006C22.6196 15.0676 22.321 15.1529 22.02 15.1529C21.7691 15.1529 21.5183 15.0937 21.2838 14.974L19.5559 14.1023C18.9166 13.7778 18.5199 13.1263 18.5199 12.4026V5.59689C18.5199 4.87201 18.9166 4.22058 19.5559 3.89841L21.285 3.02548Z" fill="white"/>
</svg>
