<svg width="14" height="10" viewBox="0 0 14 10" fill="none" xmlns="http://www.w3.org/2000/svg">
<path fill-rule="evenodd" clip-rule="evenodd" d="M3.07601 0H6.93738C8.55207 0 9.67941 1.11269 9.67941 2.70728V7.29272C9.67941 8.88731 8.55207 10 6.93738 10H3.07601C1.46133 10 0.333984 8.88731 0.333984 7.29272V2.70728C0.333984 1.11269 1.46133 0 3.07601 0ZM12.306 1.58599C12.5986 1.43709 12.942 1.45266 13.2213 1.62863C13.5006 1.80393 13.6673 2.10849 13.6673 2.44149V7.55892C13.6673 7.89259 13.5006 8.19648 13.2213 8.37178C13.0686 8.46721 12.898 8.51594 12.726 8.51594C12.5826 8.51594 12.4393 8.4821 12.3053 8.41374L11.318 7.9156C10.9526 7.73015 10.726 7.3579 10.726 6.94437V3.05536C10.726 2.64115 10.9526 2.2689 11.318 2.08481L12.306 1.58599Z" fill="#246BFD"/>
</svg>
