<svg width="28" height="28" viewBox="0 0 28 28" fill="none" xmlns="http://www.w3.org/2000/svg">
<path d="M22.6738 6.73682C25.5831 11.0768 25.5916 16.8041 22.6738 21.1536" stroke="white" stroke-width="1.5" stroke-linecap="round" stroke-linejoin="round"/>
<path d="M19.8203 9.58667C21.3158 12.2965 21.3158 15.6035 19.8203 18.3038" stroke="white" stroke-width="1.5" stroke-linecap="round" stroke-linejoin="round"/>
<path fill-rule="evenodd" clip-rule="evenodd" d="M3.12919 13.945C3.12601 15.3991 3.12919 17.1046 4.3298 18.1238C5.53146 19.1441 6.48389 18.7231 8.03767 19.2343C9.59252 19.7465 11.7699 22.905 14.1754 21.4785C15.4757 20.5547 16.0887 18.8111 16.0887 13.945C16.0887 9.07897 15.5033 7.35442 14.1754 6.41155C11.7699 4.98609 9.59252 8.14458 8.03767 8.65579C6.48389 9.16806 5.53146 8.747 4.3298 9.76624C3.12919 10.7855 3.12601 12.4909 3.12919 13.945Z" stroke="white" stroke-width="1.5" stroke-linecap="round" stroke-linejoin="round"/>
</svg>
