<svg width="28" height="28" viewBox="0 0 28 28" fill="none" xmlns="http://www.w3.org/2000/svg">
<path fill-rule="evenodd" clip-rule="evenodd" d="M3.20898 14.0002C3.20898 22.0933 5.90748 24.7918 14.0007 24.7918C22.0938 24.7918 24.7923 22.0933 24.7923 14.0002C24.7923 5.907 22.0938 3.2085 14.0007 3.2085C5.90748 3.2085 3.20898 5.907 3.20898 14.0002Z" stroke="white" stroke-width="1.5" stroke-linecap="round" stroke-linejoin="round"/>
<path fill-rule="evenodd" clip-rule="evenodd" d="M12.3649 10.2483C12.3649 11.3835 11.4455 12.3028 10.3104 12.3028C9.17636 12.3028 8.25586 11.3835 8.25586 10.2483C8.25586 9.11318 9.17636 8.19385 10.3104 8.19385C11.4455 8.19385 12.3649 9.11318 12.3649 10.2483Z" stroke="white" stroke-width="1.5" stroke-linecap="round" stroke-linejoin="round"/>
<path d="M24.6406 17.1111C23.6128 16.0541 22.1591 13.918 19.4886 13.918C16.8181 13.918 16.7598 18.629 14.0344 18.629C11.3079 18.629 10.2101 17.0295 8.43327 17.8648C6.6576 18.699 5.21094 22.0193 5.21094 22.0193" stroke="white" stroke-width="1.5" stroke-linecap="round" stroke-linejoin="round"/>
</svg>
