<svg width="24" height="24" viewBox="0 0 24 24" fill="none" xmlns="http://www.w3.org/2000/svg">
<path fill-rule="evenodd" clip-rule="evenodd" d="M1.20801 12.0002C1.20801 20.0933 3.90651 22.7918 11.9997 22.7918C20.0928 22.7918 22.7913 20.0933 22.7913 12.0002C22.7913 3.907 20.0928 1.2085 11.9997 1.2085C3.90651 1.2085 1.20801 3.907 1.20801 12.0002Z" stroke="#212121" stroke-width="1.5" stroke-linecap="round" stroke-linejoin="round"/>
<path fill-rule="evenodd" clip-rule="evenodd" d="M10.3649 8.24835C10.3649 9.38351 9.44553 10.3028 8.31036 10.3028C7.17636 10.3028 6.25586 9.38351 6.25586 8.24835C6.25586 7.11318 7.17636 6.19385 8.31036 6.19385C9.44553 6.19385 10.3649 7.11318 10.3649 8.24835Z" stroke="#212121" stroke-width="1.5" stroke-linecap="round" stroke-linejoin="round"/>
<path d="M22.6396 15.1111C21.6118 14.0541 20.1581 11.918 17.4876 11.918C14.8171 11.918 14.7588 16.629 12.0335 16.629C9.30696 16.629 8.20913 15.0295 6.43229 15.8648C4.65663 16.699 3.20996 20.0193 3.20996 20.0193" stroke="#212121" stroke-width="1.5" stroke-linecap="round" stroke-linejoin="round"/>
</svg>
