<svg width="20" height="20" viewBox="0 0 20 20" fill="none" xmlns="http://www.w3.org/2000/svg">
<path fill-rule="evenodd" clip-rule="evenodd" d="M2.29199 10.0001C2.29199 15.7809 4.21949 17.7084 10.0003 17.7084C15.7812 17.7084 17.7087 15.7809 17.7087 10.0001C17.7087 4.21925 15.7812 2.29175 10.0003 2.29175C4.21949 2.29175 2.29199 4.21925 2.29199 10.0001Z" stroke="#212121" stroke-width="1.5" stroke-linecap="round" stroke-linejoin="round"/>
<path fill-rule="evenodd" clip-rule="evenodd" d="M8.83246 7.32028C8.83246 8.13112 8.17579 8.78778 7.36496 8.78778C6.55496 8.78778 5.89746 8.13112 5.89746 7.32028C5.89746 6.50945 6.55496 5.85278 7.36496 5.85278C8.17579 5.85278 8.83246 6.50945 8.83246 7.32028Z" stroke="#212121" stroke-width="1.5" stroke-linecap="round" stroke-linejoin="round"/>
<path d="M17.6 12.2222C16.8658 11.4672 15.8275 9.94141 13.92 9.94141C12.0125 9.94141 11.9708 13.3064 10.0242 13.3064C8.07668 13.3064 7.29251 12.1639 6.02335 12.7606C4.75501 13.3564 3.72168 15.7281 3.72168 15.7281" stroke="#212121" stroke-width="1.5" stroke-linecap="round" stroke-linejoin="round"/>
</svg>
